<svg id="Layer_1" data-name="Layer 1" xmlns="http://www.w3.org/2000/svg" viewBox="0 0 349.2 500.05"><defs><style>.cls-1{fill:#4fabf7;opacity:0.7;}.cls-2{fill:#fff;}</style></defs><title>ico_h20</title><path class="cls-1" d="M249.49,473.58c87.46-1,146.23-53.65,146.23-131,0-35.44-31.93-81.73-65.75-130.74-31-45-65-77.31-81.38-128-16.27,50.72-50.14,83.06-81,128-33.67,49-65.47,95.3-65.47,130.75,0,77.3,58.28,129.93,145,131h2.37" transform="translate(-81.51 -6.51)"/><path class="cls-2" d="M256.84,506.56l-1.76,0-11.25,0v-.39C147.74,501,81.51,438.26,81.51,350.83c0-43,35.17-93.39,72.39-146.68C196.83,142.71,255.39,73.07,255.39,6.51h.17c0,66.55,59.34,136.19,102.45,197.62,37.39,53.3,72.7,103.64,72.7,146.7,0,87.46-66.75,150.19-163.58,155.35v.33Zm-1.05-422.7c-17.07,52.32-52.6,85.69-85,132.07-35.32,50.56-68.68,98.32-68.68,134.89,0,79.75,61.14,134,152.14,135.1h2.49c91.76-1.05,153.41-55.34,153.41-135.1,0-36.56-33.5-84.32-69-134.88C308.61,169.56,272.93,136.19,255.78,83.86Z" transform="translate(-81.51 -6.51)"/><path class="cls-2" d="M148.95,332.13l22.12,10.19s9.37-50.05,40.85-82.39l-16.32-7.37S163,274.36,148.95,332.13Z" transform="translate(-81.51 -6.51)"/></svg>