<svg id="Layer_1" data-name="Layer 1" xmlns="http://www.w3.org/2000/svg" viewBox="0 0 502.86 480.15"><defs><style>.cls-1{fill:#70ff48;fill-rule:evenodd;opacity:0.3;}.cls-2{fill:#fff;}</style></defs><title>ico_tag1</title><path class="cls-1" d="M8.8,472.56a259.88,259.88,0,0,0,86.35,14.72c137.73,0,250.41-106.91,259.78-242.26a260,260,0,0,0-86.35-14.72C130.86,230.31,18.18,337.22,8.8,472.56Z" transform="translate(-3.34 -9.12)"/><path class="cls-1" d="M497.37,472.56a261.92,261.92,0,0,1-86.71,14.72c-138.3,0-251.45-106.91-260.86-242.26a262.06,262.06,0,0,1,86.71-14.72C374.81,230.31,488,337.22,497.37,472.56Z" transform="translate(-3.34 -9.12)"/><path class="cls-1" d="M250.67,17.68A259.92,259.92,0,0,0,191.17,82c-75.25,115.35-47.27,268.14,61,349.94a259.82,259.82,0,0,0,59.51-64.28C386.89,252.26,358.91,99.48,250.67,17.68Z" transform="translate(-3.34 -9.12)"/><path class="cls-2" d="M505.84,467.28A265.88,265.88,0,0,0,421.6,290.89a268.59,268.59,0,0,0-58.36-41.45c.05-.67.12-1.34.16-2l.36-5.17-1.78-.62a267.81,267.81,0,0,0-3.64-62.75A266.32,266.32,0,0,0,256.46,12.25l-4.13-3.12-4.11,3.16a267.26,267.26,0,0,0-103.86,230h0l.36,5.18c.06.82.14,1.63.2,2.45A267.69,267.69,0,0,0,3.7,467.28l-.36,5.17,4.89,1.72a266.74,266.74,0,0,0,88.6,15.1c59.12,0,113.43-17.93,157.44-48.75,44.18,30.82,98.72,48.75,158.08,48.75a268.81,268.81,0,0,0,89-15.1l4.9-1.71ZM346.72,256.63a251.58,251.58,0,0,1-39.1,107.26,252.88,252.88,0,0,1-53.84,59.38,253,253,0,0,1-93.94-165.5,251.53,251.53,0,0,1,94.42-25A253.43,253.43,0,0,1,346.72,256.63Zm-148.18-171a253,253,0,0,1,53.85-59.38c65.79,51.88,99.38,131.27,96,210.49-24.85-8.93-50.54-18.1-78.1-18.1-5.36,0-10.69.18-16,.49-5.33-.31-10.69-.49-16.07-.49-27.83,0-53.78,9.28-78.87,18.26l-1.39.5A252.37,252.37,0,0,1,198.54,85.67ZM17.68,463c7.69-85.45,58-158.39,128.81-198.25A255.11,255.11,0,0,0,242.66,432c-41.11,27.68-91.32,43.71-145.83,43.71A253.14,253.14,0,0,1,17.68,463Zm394.66,12.65c-54.75,0-105.18-16-146.48-43.73a255.33,255.33,0,0,0,95.8-167.62C433.23,304.07,484.1,377.23,491.85,463A255.22,255.22,0,0,1,412.35,475.66Z" transform="translate(-3.34 -9.12)"/></svg>