<svg id="Layer_1" data-name="Layer 1" xmlns="http://www.w3.org/2000/svg" viewBox="0 0 481 469.52"><defs><style>.cls-1{fill:#fff;opacity:0.2;}.cls-2{fill:#ff7d55;}</style></defs><title>ico_kassa_inv</title><path class="cls-1" d="M431.48,433.45c-6.44,8.89-17.55,13.4-33,13.4H81.71c-15.67,0-29.16-6.63-37-18.19-7.67-11.32-8.74-26-2.91-40.29,8-19.55,36.89-102.55,45.71-127.95H392.6c8.12,23.07,33.33,94.79,41.74,119.76C439.56,395.73,442,419,431.48,433.45Z" transform="translate(-15.15 -21.4)"/><path class="cls-1" d="M81.06,140.06H396.43c6.65,0,8.35,1.43,8.39,1.43.39.79,1.49,4.65-.65,21.45-2.81,22-8.79,70.69-11.54,93.22H90c-1.67-20.89-5.24-64.05-9.29-102.95C80.19,148.64,80.37,142.79,81.06,140.06Z" transform="translate(-15.15 -21.4)"/><path class="cls-2" d="M86,393.45,112.73,396s7.72-42.41,28.08-93.91H122.12S102.16,327.16,86,393.45Z" transform="translate(-15.15 -21.4)"/><path class="cls-2" d="M490.13,387.19C480.23,357.58,449,268.3,443,251.3c2-12.76,10-63.77,13.53-85.09,2.1-12.85,3.65-27.38-4.58-37.06-7.27-8.56-18.93-9.55-27.08-9.55H360.49l-45-98.2L277.36,31.95l6.3,22.76,18.71-5.18L334.5,119.6H172.27l40.28-70.25,21.51,6.12,6.46-22.72L201.25,21.58l-56.2,98H83.88a21.44,21.44,0,0,0-16.63,7.49c-8.82,10.37-6.57,27.55-6.07,30.56,5.15,38.51,9.61,82.43,10.7,93.34-6,17.32-42,121.53-50.94,143.73-9.3,23-7.32,47,5.46,66C39.33,479.9,61.06,490.92,86,490.92H428.92c30.83,0,46.86-13.28,54.88-24.42C500.34,443.54,497.91,410.48,490.13,387.19Zm-405.24-244h340c7.17,0,9,1.19,9.05,1.19.42.66,1.6,3.9-.7,18-3,18.49-9.47,59.29-12.44,78.19H94.56c-1.79-17.52-5.65-53.73-10-86.35C84,150.41,84.14,145.5,84.89,143.21ZM464.64,452.7c-7,9.69-19,14.6-35.72,14.6H86c-17,0-31.56-7.22-40-19.82-8.31-12.33-9.46-28.33-3.15-43.89,8.63-21.3,39.93-111.73,49.48-139.39H422.54c8.79,25.13,36.08,103.26,45.18,130.47C473.39,411.6,476,437,464.64,452.7Z" transform="translate(-15.15 -21.4)"/></svg>