<?xml version="1.0" encoding="utf-8"?>
<!-- Generator: Adobe Illustrator 20.1.0, SVG Export Plug-In . SVG Version: 6.00 Build 0)  -->
<svg version="1.1" id="Layer_1" xmlns="http://www.w3.org/2000/svg" xmlns:xlink="http://www.w3.org/1999/xlink" x="0px" y="0px"
	 viewBox="0 0 100 100" style="enable-background:new 0 0 100 100;" xml:space="preserve">
<title>arrow-top</title>
<path d="M49,25.1l-46,46c-0.6,0.5-0.6,1.4,0,2c0,0,0,0,0,0l1.8,1.8c0.5,0.6,1.4,0.6,2,0c0,0,0,0,0,0L50,31.7l43.2,43.2
	c0.5,0.6,1.4,0.6,2,0c0,0,0,0,0,0l1.8-1.8c0.6-0.5,0.6-1.4,0-2c0,0,0,0,0,0L51,25C50.5,24.5,49.6,24.5,49,25.1
	C49,25.1,49,25.1,49,25.1z"/>
</svg>
