<?xml version="1.0" encoding="utf-8"?>
<!-- Generator: Adobe Illustrator 20.1.0, SVG Export Plug-In . SVG Version: 6.00 Build 0)  -->
<svg version="1.1" id="Layer_1" xmlns="http://www.w3.org/2000/svg" xmlns:xlink="http://www.w3.org/1999/xlink" x="0px" y="0px"
	 viewBox="0 0 100 100" style="enable-background:new 0 0 100 100;" xml:space="preserve">
<title>arrow-top</title>
<path d="M74.9,49l-46-46c-0.5-0.6-1.4-0.6-2,0c0,0,0,0,0,0l-1.8,1.8c-0.6,0.5-0.6,1.4,0,2c0,0,0,0,0,0L68.3,50L25.1,93.2
	c-0.6,0.5-0.6,1.4,0,2c0,0,0,0,0,0l1.8,1.8c0.5,0.6,1.4,0.6,2,0c0,0,0,0,0,0l46-46C75.5,50.5,75.5,49.6,74.9,49
	C74.9,49,74.9,49,74.9,49z"/>
</svg>
