<svg id="Layer_1" data-name="Layer 1" xmlns="http://www.w3.org/2000/svg" viewBox="0 0 101.46 83.45"><defs><style>.cls-1{fill:#010101;fill-rule:evenodd;}</style></defs><title>exchange</title><path class="cls-1" d="M255.7,415a6.74,6.74,0,0,1-1.23-5.22c.68-4.1,4.66-8.79,11.85-13.94-3.54-7.85-3.06-12.27,1.63-15.68a10.07,10.07,0,0,1,5.9-1.81,9.9,9.9,0,0,1,6.32,2.12c4.31,3.57,4.62,8.49,1,15.46,8.37,4.14,12.28,10.11,11.94,18.24l-1.16.17c-2.73-7.76-7-15.68-17.76-15.68h-.24c-9.27.1-14.88,5.37-17.16,16.12l-.28,1.32Zm18.23-33a6.77,6.77,0,0,0-4.81,2.05,6,6,0,0,0-1.78,4.39,7,7,0,0,0,6.57,6.4,6.43,6.43,0,0,0,6.33-6.4,6.13,6.13,0,0,0-6.14-6.44Z" transform="translate(-254.37 -354.81)"/><path class="cls-1" d="M318.42,415a6.73,6.73,0,0,1-1.23-5.22c.68-4.1,4.66-8.79,11.85-13.94-3.54-7.85-3.06-12.27,1.63-15.68a10.08,10.08,0,0,1,5.9-1.81,9.9,9.9,0,0,1,6.32,2.12c4.31,3.57,4.62,8.49,1,15.46,8.37,4.14,12.28,10.11,11.95,18.24l-1.16.17c-2.73-7.76-7-15.68-17.76-15.68h-.24c-9.27.1-14.88,5.37-17.16,16.12l-.28,1.32Zm18.23-33a6.77,6.77,0,0,0-4.81,2.05,6,6,0,0,0-1.78,4.39,7,7,0,0,0,6.56,6.4,6.43,6.43,0,0,0,6.34-6.4,6.13,6.13,0,0,0-6.14-6.44Z" transform="translate(-254.37 -354.81)"/><path class="cls-1" d="M277.79,371.65a3.66,3.66,0,0,1-2.91-.92c-1.1-1.39-1.07-3.54-1-5.62,0-.83,0-1.69,0-2.46l0-.57,2.37-.31,1.6,3.05c9.21-6.74,18.15-10,27.33-10,1.13,0,2.27,0,3.4.15,12.78,1.13,21.95,6.12,28,15.27l-.91.77c-8.8-8.3-18.89-12.51-30-12.51-.78,0-1.57,0-2.35.06a36.54,36.54,0,0,0-22.63,9.1l3,2-.17.45c-.05.14-.09.28-.14.41-.14.45-.28.91-.78.91h-.16c-.67,0-1.46.06-2.22.12S278.54,371.65,277.79,371.65Z" transform="translate(-254.37 -354.81)"/><path class="cls-1" d="M305.79,438.26a44.9,44.9,0,0,1-12.72-1.91c-9.31-2.75-16.3-7.9-18.69-13.78l1-.67c9.77,8.65,19.41,12.85,29.48,12.85,8.35,0,17.08-3,26-9.06l-3.6-1.66.15-.5c.06-.19.11-.38.15-.54.13-.49.24-.95.76-.95h.12c.69,0,1.48-.07,2.24-.13s1.62-.14,2.38-.14a4.13,4.13,0,0,1,3,.89c1.14,1.21,1.12,3.35,1.1,5.42,0,.83,0,1.69,0,2.44l0,.52-2.17.48-2-3.09C324.36,435,315.2,438.26,305.79,438.26Z" transform="translate(-254.37 -354.81)"/></svg>