<?xml version="1.0" encoding="utf-8"?>
<!-- Generator: Adobe Illustrator 20.1.0, SVG Export Plug-In . SVG Version: 6.00 Build 0)  -->
<svg version="1.1" id="Layer_1" xmlns="http://www.w3.org/2000/svg" xmlns:xlink="http://www.w3.org/1999/xlink" x="0px" y="0px"
	 viewBox="0 0 88 100" style="enable-background:new 0 0 88 100;" xml:space="preserve">
<title>logout</title>
<path d="M79,70.5v21.4c0,0.3-0.2,0.5-0.5,0.5h-71c-0.3,0-0.5-0.2-0.5-0.5V8.1c0-0.3,0.2-0.5,0.5-0.5h71c0.3,0,0.5,0.2,0.5,0.5v23h5
	v-23c0-3-2.5-5.5-5.5-5.5h-71C4.5,2.6,2,5.1,2,8.1v83.8c0,3,2.5,5.5,5.5,5.5h71c3,0,5.5-2.5,5.5-5.5V70.5H79z"/>
<rect x="38" y="48" width="80.1" height="4"/>
<polygon points="104.2,68.6 101.5,65.7 118.1,50 101.5,35.2 104.2,32.2 124,50 "/>
</svg>
