<svg id="Layer_1" data-name="Layer 1" xmlns="http://www.w3.org/2000/svg" viewBox="0 0 79.29 83.5"><defs><style>.cls-1{fill-rule:evenodd;}</style></defs><title>person</title><path class="cls-1" d="M341.15,434.18c-2.9-24.24-14.93-36.54-35.74-36.54-26.06,0-34.08,19.35-36.22,35.58l-2.54.22c-1.82-5.79-1-11.68,2.39-17.5,2.31-4,5.94-9.7,10.79-14,3-2.69,6.59-4.57,10.35-6.57,1-.54,2-1.08,3.07-1.65-6.81-5.22-9.85-11.9-9.06-19.89a20.43,20.43,0,0,1,7.6-14.07,21.1,21.1,0,0,1,13.46-4.88,21.33,21.33,0,0,1,16,7.3c8.16,9.3,6.45,21.1-4.49,31.85,13.15,4.52,22.07,13.22,26.52,25.9,2.15,6.11,2.24,10.91.28,14.69l-1.95,3.76Zm-35.88-74.39a16.66,16.66,0,0,0-16.4,16.14,15.88,15.88,0,0,0,4.64,11.43,16.43,16.43,0,0,0,11.79,4.92,16.24,16.24,0,1,0,0-32.49v-1.3Z" transform="translate(-265.71 -354.88)"/></svg>