<?xml version="1.0" encoding="utf-8"?>
<!-- Generator: Adobe Illustrator 20.1.0, SVG Export Plug-In . SVG Version: 6.00 Build 0)  -->
<svg version="1.1" id="Layer_1" xmlns="http://www.w3.org/2000/svg" xmlns:xlink="http://www.w3.org/1999/xlink" x="0px" y="0px"
	 viewBox="0 0 419 419" style="enable-background:new 0 0 419 419;" xml:space="preserve">
<path d="M4.8,130.1C18.6,66.3,66.5,18.6,130.8,4.5c8.7-1.9,12.8-2.2,32.2-2.2c19.3,0,23.5,0.3,32,2.2
	c65.3,14.5,112.2,61.6,126.3,126.7c1.9,9,2.2,13.2,2.2,31.6s-0.3,22.6-2.2,31.6c-3.4,15.4-8.5,29.7-14.9,42l-5.7,10.9l54.6,54.8
	c63.3,63.6,60.3,59.8,60.3,77.1c-0.1,8.6-0.5,11.2-2.3,15.1c-3,6.5-11.3,14.9-17.9,18.2c-4.9,2.5-6.6,2.8-15.9,2.8
	c-17.3,0-13.5,3-77.1-60.3l-54.8-54.6l-10.9,5.7c-11.9,6.2-30.3,12.6-44.5,15.4c-12.8,2.5-44.8,2.5-58.3-0.1
	c-14.3-2.7-31.3-8.5-44.7-15.3c-46-23.6-77.6-67.2-85.8-118.2C1.3,174.8,2,142.8,4.8,130.1z M128.9,271.9c12.6,4,19.8,4.9,34.1,4.9
	c19.6,0,33.8-3.3,50.9-11.9c12.1-6,20.2-12,30.1-21.9c16.1-16.3,26.3-35.4,31.2-58.6c2.4-11.1,2.4-32,0-43.1
	c-10-47.3-45.1-81.9-92.5-91.2c-9.4-1.9-32.4-1.6-42,0.5C117.4,55.7,99,65.7,82.5,82.3c-18.9,18.8-29.7,41.1-33,67.7
	C42.8,203.3,76.9,255.7,128.9,271.9z"/>
<path d="M129.4,80.6c15.1-7.3,26-7.5,33.3-0.6c6.4,6.1,7.9,14.7,3.8,22.7c-2.6,5.3-6.8,8.3-14.5,10.5c-19.3,5.6-34.1,21.1-39.2,41.2
	c-3.5,13.7-21.1,19.1-31.4,9.5c-1.6-1.5-3.7-4.5-4.7-6.7C67.6,137.5,95.6,97,129.4,80.6z"/>
</svg>
