<svg xmlns="http://www.w3.org/2000/svg" viewBox="0 0 92.83 94.83">
    <path d="M644.95,538.18l14.33-15-1.54-.17a36.9,36.9,0,0,0-3.87-.31l-3.46,0c-4.05,0-8.11-.05-12.16-.05-4.42,0-8.28,0-11.83.1h-.3c-1.93,0-3.16-.37-4-1.21s-1.24-2.21-1.22-4.34c.16-16.75.17-34.36,0-55.42,0-2,.35-3.26,1.17-4.09s2-1.18,4-1.18c11.73.06,23.46.09,35,.09,11.69,0,23.47,0,35-.09h0c1.84,0,3,.36,3.78,1.12s1.12,2,1.11,3.92c-.1,21.27-.1,39,0,55.92,0,1.93-.37,3.22-1.21,4.06a5.25,5.25,0,0,1-3.92,1.21h-.22c-3.52-.05-7.35-.08-11.7-.08s-8.47,0-12.71,0h-2.55c-1.22,0-2.43.11-4.1.26l-1.8.16,14.53,15-2.37,2.52L660,526l-12.08,14.93Zm-17-78a3.42,3.42,0,0,0-2.47.69c-.67.67-.72,1.95-.71,3.43q0,5,0,10c.05,12.75.11,25.94-.14,38.9,0,2.51.28,3.94,1.1,4.77s2.12,1.15,4.35,1.15h.26c9.73-.12,19.63-.17,30.27-.17,10,0,20.31.05,31.65.15h.19c2.11,0,3.38-.34,4.12-1.09s1.08-2.06,1-4.19c-.15-10.79-.13-21.77-.11-32.38q0-8,0-16.06a33.07,33.07,0,0,0-.27-3.58c0-.41-.09-.81-.13-1.22l-.53-.13a5.32,5.32,0,0,0-1.21-.22H674c-15.08,0-30.68,0-46-.09l0-.65Z" transform="translate(-614.76 -446.08)"/> -->
    <path d="M614.81,452.73l0-2.9.63,0,1.45-.09c1-.07,2.13-.15,3.21-.15h2.18l6.81,0,6.81,0c4.57,0,8.27,0,11.62-.11h.29c.71,0,1.43.05,2.13.11s1.38.1,2.06.1a6,6,0,0,0,5.37-2.57c.66-.89,2.51-1,3.56-1,1.71,0,4,.36,4.73,1.39a4.77,4.77,0,0,0,4.44,2.07l.91,0,1,0H672q6.89,0,13.79,0h5.91l10.73,0a23.52,23.52,0,0,1,3.11.29l1.38.18.64.07-.26,2.64Z" transform="translate(-614.76 -446.08)"/>
    <path d="M631.16,503.38l12.31-12.72,7.74,6.8,16-17.53,7.28,6.31,9.24-8.26-6.35-1.12-.09-2.35.47-.15a24.26,24.26,0,0,1,6.78-1.23c2.12,0,3.64.55,4.52,1.63,1.63,2,1.65,5.2,1.66,8.28,0,1.27,0,2.59.14,3.77l.07.66-3.39.29-1-6.81-11.55,11L667.22,485c-1.12,1.22-2.23,2.42-3.34,3.6-2.85,3.05-5.54,5.94-8,9.05-1.82,2.27-3.53,3.37-5.22,3.37s-3.39-1.13-5.09-3.46a5.88,5.88,0,0,0-1.16-1l-.61-.48-10.24,9.62Z" transform="translate(-614.76 -446.08)"/>
</svg>