<?xml version="1.0" encoding="utf-8"?>
<!-- Generator: Adobe Illustrator 20.1.0, SVG Export Plug-In . SVG Version: 6.00 Build 0)  -->
<svg version="1.1" id="Layer_1" xmlns="http://www.w3.org/2000/svg" xmlns:xlink="http://www.w3.org/1999/xlink" x="0px" y="0px"
	 viewBox="0 0 501.4 450.6" style="enable-background:new 0 0 501.4 450.6;" xml:space="preserve">
<title>tag</title>
<path d="M501.4,150.8C501.2,68.3,434.2,0.7,352,0c-37.5-0.5-73.7,13.1-101.8,37.9c-62.4-55-157.6-49.1-212.7,13.3
	S-11.4,208.9,51,264c13.9,12.2,29.8,21.8,47.2,28.2c-0.1,2.5-0.2,5-0.2,7.6c0,82.7,66.6,150.2,148.9,150.9
	c83.7,0.7,152.8-67.6,152.6-150.8c0-2.2-0.1-4.4-0.2-6.6C458.6,272.8,501.6,216.4,501.4,150.8z M285.5,153.7
	c-11.6-2.9-23.5-4.5-35.4-4.6c-11.5-0.1-22.9,1.1-34.1,3.5c0-0.3,0-0.7,0-1c-0.3-33.9,13.2-65.7,35.1-89.8
	c21.8,24.1,35,55.8,34.6,90.1C285.5,152.5,285.5,153.1,285.5,153.7z M250.5,240.1c-17.8-19.8-29.4-44.4-33.2-70.7
	c10.3-2.6,21-3.9,31.6-3.8c11.9,0.1,23.7,1.7,35.1,4.9C279.9,196.5,268.2,220.6,250.5,240.1L250.5,240.1z M299.4,175.9
	c43.5,18.1,76,58.1,82.8,105.4c-11,2.7-22.2,4-33.5,3.8c-31.8-0.6-62.4-12.4-86.3-33.4C281.7,230.5,294.6,204.2,299.4,175.9
	L299.4,175.9z M238.6,251.7c-24.3,21.1-55.9,33.9-89.9,33.3c-11.3-0.2-22.5-1.8-33.3-4.8c7.4-47.8,41.8-88.8,86.4-106
	C206.3,203.1,219.1,230,238.6,251.7L238.6,251.7z M16,151.6C15.4,78.9,78.2,16,150.9,16.5c32.2,0.3,63.3,12,87.6,33.1
	c-25,27.7-38.7,63.8-38.6,101.1c0,2.1,0.1,4.2,0.1,6.3c-52.7,17.7-91.2,63.1-100.1,118C51.2,254.9,16.4,206.9,16,151.6z M383.5,301
	c-0.9,73.5-63.3,134.3-136.8,133.2c-72.6-1.1-132.2-61-132.8-133.5c0-1.2,0-2.4,0-3.6c11.5,2.9,23.2,4.3,35,4.4
	c37.4,0.3,73.5-13.3,101.4-38.1c36.2,32.3,85.8,45.1,133.1,34.4C383.5,298.9,383.5,299.9,383.5,301z M397.5,276.4
	c-8.8-53.6-45.4-98.5-96.2-117.8c0.1-2.6,0.2-5.2,0.2-7.9c-0.1-37.2-13.9-73-38.8-100.6c24-21,55-34,88.2-33.7
	c74.2,0.5,135.5,62.1,134.6,135.4C484.8,208.3,447.9,257.2,397.5,276.4L397.5,276.4z"/>
</svg>
