<svg id="Layer_1" data-name="Layer 1" xmlns="http://www.w3.org/2000/svg" viewBox="0 0 111.59 95.74"><defs><style>.cls-1{fill-rule:evenodd;}</style></defs><title>two-persons</title><path class="cls-1" d="M390,585.52c17,5.93,27.25,17.38,30.1,34.93.38,2.34-.93,5-1.46,7.46-.76-2.11-1.93-4.17-2.22-6.35a38.3,38.3,0,0,0-39.09-33.45c-19.06.48-35,15.62-36.68,34.93a7.71,7.71,0,0,1-.18,2.47,12.58,12.58,0,0,1-1.95,2.41c-.64-.83-1.89-1.7-1.83-2.47a53.14,53.14,0,0,1,1.57-10.81c4.38-14.64,14.15-24.12,29.25-29.12-7.71-5.58-12.43-12.9-10.56-22.1a28,28,0,0,1,7.7-14c8.87-8.38,22.86-6.8,30.72,2.46C403.79,561.86,401.92,574.38,390,585.52Zm-11.59-37.41a18,18,0,1,0,18.14,18A18,18,0,0,0,378.37,548.11Z" transform="translate(-336.66 -532.17)"/><path class="cls-1" d="M404.74,572.46c-.86-4.25-.21-5.87,4.18-4.92,8.48,1.83,16.08-2.63,18.62-10.38a15.68,15.68,0,0,0-8-19.39c-7.54-3.75-15.35-1.53-20.63,5.65-.81,1.1-2.39,1.63-3.61,2.43.19-1.62-.15-3.56.64-4.81,6-9.54,19.51-11.74,28.51-4.83a19.94,19.94,0,0,1,2.93,29.2c-1.19,1.36-2.41,2.69-3.81,4.24,9.12,3.5,16.62,9.06,20.92,18a54.06,54.06,0,0,1,3.72,11.82c.29,1.33-1,3-1.51,4.5-.76-1.26-2-2.44-2.21-3.79-2.75-15-12.15-25.15-26.45-27.59C413.85,571.86,409.45,572.46,404.74,572.46Z" transform="translate(-336.66 -532.17)"/></svg>