<?xml version="1.0" encoding="utf-8"?>
<svg version="1.1" id="Layer_1" xmlns="http://www.w3.org/2000/svg" xmlns:xlink="http://www.w3.org/1999/xlink" x="0px" y="0px"
	 viewBox="0 0 100 100" style="enable-background:new 0 0 100 100;" xml:space="preserve">
<path fill="#459edb" d="M51,74.9l46-46c0.6-0.5,0.6-1.4,0-2c0,0,0,0,0,0l-1.8-1.8c-0.5-0.6-1.4-0.6-2,0c0,0,0,0,0,0L50,68.3L6.8,25.1
	c-0.5-0.6-1.4-0.6-2,0c0,0,0,0,0,0L3,26.9c-0.6,0.5-0.6,1.4,0,2c0,0,0,0,0,0l46,46C49.5,75.5,50.4,75.5,51,74.9
	C51,74.9,51,74.9,51,74.9z"/>
</svg>
