<?xml version="1.0" encoding="utf-8"?>
<!-- Generator: Adobe Illustrator 20.1.0, SVG Export Plug-In . SVG Version: 6.00 Build 0)  -->
<svg version="1.1"
	 id="Layer_1" inkscape:version="0.91 r13725" sodipodi:docname="Visa_2006.svg" xmlns:cc="http://creativecommons.org/ns#" xmlns:dc="http://purl.org/dc/elements/1.1/" xmlns:inkscape="http://www.inkscape.org/namespaces/inkscape" xmlns:rdf="http://www.w3.org/1999/02/22-rdf-syntax-ns#" xmlns:sodipodi="http://sodipodi.sourceforge.net/DTD/sodipodi-0.dtd" xmlns:svg="http://www.w3.org/2000/svg"
	 xmlns="http://www.w3.org/2000/svg" xmlns:xlink="http://www.w3.org/1999/xlink" x="0px" y="0px" viewBox="0 0 1000 458"
	 style="enable-background:new 0 0 1000 458;" xml:space="preserve">
<style type="text/css">
	.st0{fill:#00579F;}
	.st1{fill:#FAA61A;}
</style>
<sodipodi:namedview  bordercolor="#666666" borderopacity="1" gridtolerance="10" guidetolerance="10" id="namedview19" inkscape:current-layer="Layer_1" inkscape:cx="34.690897" inkscape:cy="131.15483" inkscape:pageopacity="0" inkscape:pageshadow="2" inkscape:window-height="705" inkscape:window-maximized="1" inkscape:window-width="1366" inkscape:window-x="-8" inkscape:window-y="-8" inkscape:zoom="0.35355339" objecttolerance="10" pagecolor="#ffffff" showgrid="false">
	</sodipodi:namedview>
<g id="g4158" transform="matrix(4.4299631,0,0,4.4299631,-81.165783,-105.04783)">
	<polygon id="polygon9" class="st0" points="116.1,110.9 97.9,110.9 109.3,40.2 127.6,40.2 	"/>
	<path id="path11" inkscape:connector-curvature="0" class="st0" d="M182.4,41.9c-3.6-1.4-9.3-3-16.4-3c-18.1,0-30.8,9.6-30.9,23.4
		c-0.1,10.2,9.1,15.8,16,19.2c7.1,3.5,9.5,5.7,9.5,8.8c-0.1,4.7-5.7,6.9-11,6.9c-7.3,0-11.2-1.1-17.2-3.8l-2.4-1.1l-2.6,15.9
		c4.3,2,12.2,3.7,20.4,3.8c19.2,0,31.7-9.5,31.8-24.2c0.1-8.1-4.8-14.2-15.4-19.3c-6.4-3.2-10.3-5.4-10.3-8.7
		c0.1-3,3.3-6.1,10.5-6.1c5.9-0.2,10.3,1.3,13.6,2.7l1.7,0.8L182.4,41.9C182.4,41.9,182.4,41.9,182.4,41.9z"/>
	<path id="path13" inkscape:connector-curvature="0" class="st0" d="M206.7,85.8C208.2,81.8,214,66,214,66c-0.1,0.2,1.5-4.1,2.4-6.8
		l1.3,6.1c0,0,3.5,16.9,4.2,20.5C219.1,85.8,210.4,85.8,206.7,85.8L206.7,85.8z M229.3,40.2h-14.1c-4.4,0-7.7,1.3-9.6,5.9
		l-27.2,64.9h19.2c0,0,3.2-8.7,3.8-10.6c2.1,0,20.8,0,23.5,0c0.5,2.5,2.2,10.6,2.2,10.6h16.9L229.3,40.2L229.3,40.2L229.3,40.2z"/>
	<path id="path15" inkscape:connector-curvature="0" class="st0" d="M82.6,40.2L64.7,88.4l-2-9.8C59.4,67.3,49,55.1,37.4,49
		l16.4,61.8h19.3l28.7-70.6L82.6,40.2L82.6,40.2L82.6,40.2z"/>
	<path id="path17" inkscape:connector-curvature="0" class="st1" d="M48,40.2H18.6l-0.3,1.4c23,5.9,38.2,20,44.4,37l-6.4-32.5
		C55.3,41.6,52,40.3,48,40.2L48,40.2z"/>
</g>
</svg>
