<?xml version="1.0" encoding="utf-8"?>
<!-- Generator: Adobe Illustrator 20.1.0, SVG Export Plug-In . SVG Version: 6.00 Build 0)  -->
<svg version="1.1" id="Layer_1" xmlns="http://www.w3.org/2000/svg" xmlns:xlink="http://www.w3.org/1999/xlink" x="0px" y="0px"
	 viewBox="0 0 858.5 208.5" style="enable-background:new 0 0 858.5 208.5;" xml:space="preserve">
<style type="text/css">
	.st0{fill:#036CB5;}
	.st1{filter:url(#Adobe_OpacityMaskFilter);}
	.st2{fill:#FFFFFF;}
	.st3{mask:url(#mask-2_2_);fill:#036CB5;}
	.st4{fill:none;}
</style>
<path id="Combined-Shape" class="st0" d="M106.5,5.2c15.6,0,30.4,3.6,43.8,10c2.1,0.9,4.2,2.1,6.3,3.2l-9.1,8.1l-13.7-14.1L110.2,33
	L96.3,18.2L52.9,56.7L80.7,87l-10.8,9.4l27.4,30.3l-10.8,9.4l39.2,43.1l23.2-21.1l20.2,22.6c-4,3-8.4,6-13.1,8.7
	c-14.5,8.1-31.2,12.8-49.1,12.8c-55,0-99.7-44.2-99.7-98.5C6.8,49.6,51.6,5.2,106.5,5.2z M88.3,97.5l23.8-21.1l21.3,23.5l-23.8,21.1
	L88.3,97.5z M105.2,138.2l23.6-21.3l21.5,23.5l-23.8,21.1L105.2,138.2z M71.3,57.5l23.8-21.1l21.3,23.5L92.7,81L71.3,57.5z
	 M114.9,46.2l17.7-15.8l16,17.5l-17.7,16L114.9,46.2z M146.5,118.6l17.7-15.8l16,17.7l-17.7,15.8L146.5,118.6z M162.1,154.2
	l17.7-15.8l16,17.5l-17.7,16L162.1,154.2z M169.3,72.9l11.8-10.5L191.8,74L180,84.6L169.3,72.9z M154.1,38.1l11.8-10.7l10.7,11.8
	l-11.8,10.5L154.1,38.1z M184.4,107.7l11.8-10.5l10.8,11.7l-12,10.5L184.4,107.7z M131.3,81.6L149,65.8l16,17.5l-17.7,15.8
	L131.3,81.6z"/>
<g>
	<g id="Group-27" transform="translate(0.000000, 2.608752)">
		<g id="Clip-26">
		</g>
		<defs>
			<filter id="Adobe_OpacityMaskFilter" filterUnits="userSpaceOnUse" x="246.1" y="50.6" width="104" height="90.9">
				<feColorMatrix  type="matrix" values="1 0 0 0 0  0 1 0 0 0  0 0 1 0 0  0 0 0 1 0"/>
			</filter>
		</defs>
		<mask maskUnits="userSpaceOnUse" x="246.1" y="50.6" width="104" height="90.9" id="mask-2_2_">
			<g class="st1">
				<polygon id="path-1_2_" class="st2" points="246.1,50.6 246.1,141.5 350,141.5 350,50.6 				"/>
			</g>
		</mask>
		<polygon id="Fill-25" class="st3" points="298.2,77.5 297.3,77.5 280.5,141.5 266.7,141.5 246.1,50.6 260.3,50.6 274.6,118.5 
			275.5,118.5 292.1,50.6 303.5,50.6 321.2,118.5 322.1,118.5 335.1,50.6 350,50.6 329.4,141.5 315.6,141.5 		"/>
	</g>
	<path id="Fill-28" class="st0" d="M368.2,105.4h29.2c-0.6-13.5-7.1-18.8-14-18.8C375.6,86.6,369.6,92.6,368.2,105.4 M407.6,129.5
		v9.7c-5.7,3.3-13.4,5.9-22.6,5.9c-21.4,0-30.2-13.3-30.2-33.6c0-19.5,9.8-33.6,29-33.6c15.9,0,25.8,10.4,25.8,31.3v4.7h-41.6
		c0,15.4,6.2,22.2,19.4,22.2C394.2,136.2,400.6,133.8,407.6,129.5"/>
	<path id="Fill-30" class="st0" d="M439.2,134.9c4.1,1.8,8.6,2.1,11.7,2.1c9.4,0,16.6-5.9,16.6-26.7c0-16.3-5.9-21.5-14.4-21.5
		c-5.1,0-8.8,1.4-13.9,4.2L439.2,134.9L439.2,134.9z M439.3,83.5c3.8-2,10.3-4.7,17.2-4.7c15.8,0,24.4,11,24.4,31.5
		c0,24-11.5,35.6-30,35.6c-6.8,0-17.2-2.2-24.9-6.3V50.2l13.3-3.2L439.3,83.5L439.3,83.5z"/>
	<polygon id="Fill-32" class="st0" points="538.4,124.8 539,124.8 566.3,53.2 582.1,53.2 582.1,144.1 568.3,144.1 568.3,78.2 
		567.2,78.2 541.2,144.1 533,144.1 507,79.7 505.8,79.7 505.8,144.1 494.3,144.1 494.3,53.2 509.8,53.2 	"/>
	<path id="Fill-34" class="st0" d="M638.4,111.6c0-17.3-7-24.6-15.7-24.6c-8.4,0-15.7,7.3-15.7,24.6c0,17.6,6.6,24.6,15.7,24.6
		C631.8,136.2,638.4,129.2,638.4,111.6 M593.6,111.6c0-22.4,12.3-33.6,29.1-33.6c16.8,0,29.1,11.2,29.1,33.6
		c0,21.9-11.6,33.6-29.1,33.6C605.3,145.2,593.6,133.5,593.6,111.6"/>
	<path id="Fill-36" class="st0" d="M661.9,87.5c5.7-3.5,17.9-9.5,32.5-9.5c15.3,0,21,6,21,19.2v46.4h-13.3v-43.5
		c0-10.1-5-11.9-11.5-11.9c-5.1,0-11.6,2.3-15.6,4.6v50.8h-13.3L661.9,87.5L661.9,87.5z"/>
	<path id="Fill-38" class="st0" d="M743.6,105.4h29.2c-0.6-13.5-7.1-18.8-14-18.8C751,86.6,745,92.6,743.6,105.4 M783,129.5v9.7
		c-5.7,3.3-13.4,5.9-22.6,5.9c-21.4,0-30.2-13.3-30.2-33.6c0-19.5,9.8-33.6,29-33.6c16,0,25.8,10.4,25.8,31.3v4.7h-41.6
		c0,15.4,6.3,22.2,19.4,22.2C769.6,136.2,776,133.8,783,129.5"/>
	<path id="Fill-40" class="st0" d="M837.9,78h13.7l-23.1,64.1c-6.4,17.7-14.2,26.9-28.8,26.9v-10.5c8.7,0,14-6.9,17.1-16.4L792.3,78
		h14l16.3,47.2h0.8L837.9,78z"/>
	<rect x="180.6" y="-41.7" class="st4" width="990" height="300"/>
</g>
</svg>
