<?xml version="1.0" encoding="utf-8"?>
<!-- Generator: Adobe Illustrator 20.1.0, SVG Export Plug-In . SVG Version: 6.00 Build 0)  -->
<svg version="1.1"
	 id="Layer_1" xmlns:cc="http://creativecommons.org/ns#" xmlns:dc="http://purl.org/dc/elements/1.1/" xmlns:rdf="http://www.w3.org/1999/02/22-rdf-syntax-ns#"
	 xmlns="http://www.w3.org/2000/svg" xmlns:xlink="http://www.w3.org/1999/xlink" x="0px" y="0px" viewBox="0 0 306.5 93"
	 style="enable-background:new 0 0 306.5 93;" xml:space="preserve">
<style type="text/css">
	.st0{fill:#F7931A;}
	.st1{fill:#FFFFFF;}
	.st2{fill:#4D4D4D;}
</style>
<g transform="translate(-289.60744,-317.50471)">
	<path class="st0" d="M352.6,371.7c-4.3,17.1-21.6,27.6-38.8,23.3c-17.1-4.3-27.6-21.6-23.3-38.8c4.3-17.1,21.6-27.6,38.8-23.3
		C346.5,337.2,356.9,354.6,352.6,371.7L352.6,371.7z"/>
	<path class="st1" d="M335.7,359.4c0.6-4.3-2.6-6.5-7-8.1l1.4-5.8l-3.5-0.9l-1.4,5.6c-0.9-0.2-1.9-0.4-2.8-0.7l1.4-5.7l-3.5-0.9
		l-1.4,5.8c-0.8-0.2-1.5-0.3-2.2-0.5l0,0l-4.8-1.2l-0.9,3.8c0,0,2.6,0.6,2.5,0.6c1.4,0.4,1.7,1.3,1.6,2l-1.6,6.6
		c0.1,0,0.2,0.1,0.4,0.1c-0.1,0-0.2-0.1-0.4-0.1l-2.3,9.2c-0.2,0.4-0.6,1.1-1.6,0.8c0,0.1-2.6-0.6-2.6-0.6l-1.7,4l4.6,1.1
		c0.9,0.2,1.7,0.4,2.5,0.6l-1.5,5.8l3.5,0.9l1.4-5.8c1,0.3,1.9,0.5,2.8,0.7l-1.4,5.7l3.5,0.9l1.5-5.8c6,1.1,10.5,0.7,12.4-4.7
		c1.5-4.4-0.1-6.9-3.2-8.5C333.5,364.1,335.2,362.6,335.7,359.4L335.7,359.4z M327.7,370.7c-1.1,4.4-8.4,2-10.8,1.4l1.9-7.7
		C321.2,365,328.8,366.2,327.7,370.7L327.7,370.7z M328.8,359.4c-1,4-7.1,2-9.1,1.5l1.7-7C323.4,354.3,329.8,355.2,328.8,359.4z"/>
	<path class="st2" d="M383.4,351.4c2.6,0,4.8,0.5,6.7,1.4c1.9,0.9,3.5,2.2,4.7,3.7c1.2,1.6,2.2,3.4,2.8,5.5c0.6,2.1,0.9,4.4,0.9,6.8
		c0,3.7-0.7,7.2-2.1,10.6c-1.4,3.3-3.2,6.2-5.6,8.7c-2.4,2.5-5.2,4.4-8.4,5.8c-3.2,1.4-6.7,2.1-10.5,2.1c-0.5,0-1.3,0-2.6,0
		s-2.6-0.1-4.2-0.4c-1.6-0.2-3.2-0.5-5-1c-1.8-0.4-3.4-1-5-1.8l14-58.9l12.5-1.9l-5,20.9c1.1-0.5,2.2-0.9,3.2-1.1
		C381,351.5,382.1,351.4,383.4,351.4L383.4,351.4z M372.9,386c1.9,0,3.7-0.5,5.3-1.4c1.7-0.9,3.1-2.1,4.3-3.7
		c1.2-1.5,2.2-3.3,2.9-5.2s1.1-4,1.1-6.1c0-2.6-0.4-4.6-1.3-6.1c-0.9-1.5-2.5-2.2-4.8-2.2c-0.8,0-1.7,0.1-3,0.4
		c-1.2,0.3-2.3,0.8-3.3,1.7l-5.3,22.2c0.3,0.1,0.6,0.1,0.9,0.2c0.2,0.1,0.5,0.1,0.8,0.1c0.3,0,0.6,0,1,0S372.3,386,372.9,386
		L372.9,386z"/>
	<path class="st2" d="M411.5,394.9h-12l10.1-42.6h12.1L411.5,394.9z M417.3,347.1c-1.7,0-3.2-0.5-4.5-1.5c-1.4-1-2-2.5-2-4.6
		c0-1.1,0.2-2.2,0.7-3.2c0.5-1,1.1-1.9,1.8-2.6c0.8-0.7,1.6-1.3,2.6-1.7c1-0.4,2.1-0.6,3.2-0.6c1.7,0,3.2,0.5,4.5,1.5
		c1.3,1,2,2.5,2,4.6c0,1.1-0.2,2.2-0.7,3.2c-0.5,1-1.1,1.9-1.8,2.6c-0.8,0.7-1.6,1.3-2.6,1.7C419.5,346.9,418.4,347.1,417.3,347.1
		L417.3,347.1z"/>
	<path class="st2" d="M432.2,341.7l12.6-1.9l-3.1,12.6h13.4l-2.4,9.9h-13.4l-3.6,14.9c-0.3,1.2-0.5,2.4-0.6,3.5
		c-0.1,1.1,0.1,2,0.4,2.8c0.3,0.8,0.9,1.4,1.7,1.8c0.8,0.4,2,0.7,3.6,0.7c1.3,0,2.6-0.1,3.8-0.4c1.2-0.2,2.4-0.6,3.7-1l0.9,9.2
		c-1.6,0.6-3.4,1.1-5.3,1.5c-1.9,0.4-4.1,0.6-6.7,0.6c-3.7,0-6.6-0.6-8.7-1.7c-2.1-1.1-3.5-2.6-4.4-4.5c-0.9-1.9-1.2-4.1-1.1-6.6
		c0.1-2.5,0.5-5.1,1.1-7.9L432.2,341.7L432.2,341.7z"/>
	<path class="st2" d="M454.6,377.9c0-3.7,0.6-7.1,1.8-10.4c1.2-3.2,2.9-6.1,5.1-8.5c2.2-2.4,4.9-4.3,8.1-5.7
		c3.1-1.4,6.7-2.1,10.6-2.1c2.4,0,4.6,0.2,6.5,0.7c1.9,0.5,3.7,1.1,5.2,1.8l-4.1,9.4c-1.1-0.4-2.2-0.8-3.4-1.2
		c-1.2-0.4-2.6-0.5-4.3-0.5c-4,0-7.2,1.4-9.5,4.1c-2.3,2.8-3.5,6.5-3.5,11.1c0,2.8,0.6,5,1.8,6.7c1.2,1.7,3.4,2.5,6.6,2.5
		c1.6,0,3.1-0.2,4.5-0.5c1.5-0.3,2.8-0.7,3.9-1.2l0.9,9.6c-1.5,0.6-3.2,1.1-5,1.6c-1.8,0.4-4,0.7-6.6,0.7c-3.3,0-6.2-0.5-8.5-1.5
		c-2.3-1-4.2-2.3-5.7-3.9c-1.5-1.7-2.6-3.6-3.3-5.8C454.9,382.6,454.6,380.3,454.6,377.9L454.6,377.9z"/>
	<path class="st2" d="M507.8,396c-2.9,0-5.3-0.4-7.5-1.3c-2.1-0.9-3.8-2.1-5.2-3.6c-1.4-1.6-2.4-3.4-3.1-5.5c-0.7-2.1-1-4.5-1-7.1
		c0-3.2,0.5-6.5,1.6-9.7c1-3.2,2.6-6.2,4.7-8.7c2-2.6,4.6-4.7,7.5-6.4c3-1.6,6.4-2.5,10.2-2.5c2.8,0,5.3,0.4,7.4,1.3
		c2.1,0.9,3.9,2.1,5.3,3.6c1.4,1.6,2.4,3.4,3.1,5.5c0.7,2.1,1.1,4.5,1.1,7.1c0,3.2-0.5,6.5-1.5,9.7c-1,3.2-2.5,6.1-4.5,8.7
		c-2,2.6-4.5,4.7-7.5,6.4C515.2,395.2,511.8,396,507.8,396L507.8,396z M513.8,361.3c-1.8,0-3.3,0.5-4.7,1.5c-1.4,1-2.5,2.3-3.4,3.9
		c-0.9,1.6-1.6,3.3-2.1,5.1c-0.5,1.9-0.7,3.6-0.7,5.3c0,2.7,0.4,4.8,1.3,6.3c0.9,1.5,2.4,2.3,4.7,2.3c1.8,0,3.3-0.5,4.7-1.5
		c1.3-1,2.5-2.3,3.4-3.9c0.9-1.6,1.6-3.3,2.1-5.1c0.5-1.9,0.7-3.6,0.7-5.3c0-2.7-0.4-4.8-1.3-6.3
		C517.6,362.1,516.1,361.3,513.8,361.3L513.8,361.3z"/>
	<path class="st2" d="M544.8,394.9h-12l10.1-42.6H555L544.8,394.9z M550.7,347.1c-1.7,0-3.2-0.5-4.5-1.5c-1.3-1-2-2.5-2-4.6
		c0-1.1,0.2-2.2,0.7-3.2c0.5-1,1.1-1.9,1.8-2.6c0.8-0.7,1.6-1.3,2.6-1.7c1-0.4,2.1-0.6,3.2-0.6c1.7,0,3.2,0.5,4.5,1.5
		c1.3,1,2,2.5,2,4.6c0,1.1-0.2,2.2-0.7,3.2s-1.1,1.9-1.8,2.6c-0.8,0.7-1.6,1.3-2.6,1.7C552.9,346.9,551.8,347.1,550.7,347.1z"/>
	<path class="st2" d="M563.7,354.2c0.9-0.3,1.9-0.6,3-0.9c1.1-0.3,2.3-0.7,3.7-1c1.4-0.3,2.9-0.5,4.6-0.7c1.7-0.2,3.6-0.3,5.8-0.3
		c6.3,0,10.7,1.8,13.1,5.5c2.4,3.7,2.8,8.7,1.3,15.1l-5.5,23h-12.1l5.3-22.5c0.3-1.4,0.6-2.8,0.8-4.1c0.2-1.3,0.2-2.5,0-3.5
		c-0.2-1-0.7-1.8-1.5-2.4c-0.8-0.6-2-0.9-3.6-0.9c-1.6,0-3.2,0.2-4.8,0.5l-7.9,33h-12.1L563.7,354.2z"/>
</g>
</svg>
