<?xml version="1.0" encoding="utf-8"?>
<!-- Generator: Adobe Illustrator 20.1.0, SVG Export Plug-In . SVG Version: 6.00 Build 0)  -->
<svg version="1.1" id="Layer_1" xmlns="http://www.w3.org/2000/svg" xmlns:xlink="http://www.w3.org/1999/xlink" x="0px" y="0px"
	 viewBox="0 0 89.6 25.5" style="enable-background:new 0 0 89.6 25.5;" xml:space="preserve">
<style type="text/css">
	.st0{fill:#253B80;}
	.st1{fill:#179BD7;}
</style>
<path class="st0" d="M11.8,0.9H5C4.5,0.9,4.1,1.2,4,1.7L1.3,19.2c-0.1,0.3,0.2,0.7,0.6,0.7h3.3c0.5,0,0.9-0.3,0.9-0.8l0.7-4.7
	c0.1-0.5,0.5-0.8,0.9-0.8h2.2c4.5,0,7.1-2.2,7.8-6.5c0.3-1.9,0-3.4-0.9-4.4C15.8,1.5,14.1,0.9,11.8,0.9z M12.6,7.3
	c-0.4,2.5-2.2,2.5-4.1,2.5h-1l0.7-4.6c0-0.3,0.3-0.5,0.6-0.5h0.5c1.2,0,2.4,0,3,0.7C12.6,5.8,12.7,6.4,12.6,7.3z"/>
<path class="st0" d="M32.3,7.2H29c-0.3,0-0.5,0.2-0.6,0.5l-0.1,0.9L28,8.3c-0.7-1-2.3-1.4-3.9-1.4c-3.6,0-6.7,2.7-7.3,6.6
	c-0.3,1.9,0.1,3.8,1.2,5c1,1.2,2.4,1.7,4.1,1.7c2.9,0,4.5-1.9,4.5-1.9l-0.1,0.9c-0.1,0.3,0.2,0.7,0.6,0.7h2.9c0.5,0,0.9-0.3,0.9-0.8
	l1.8-11.2C32.9,7.5,32.6,7.2,32.3,7.2z M27.7,13.6c-0.3,1.9-1.8,3.1-3.7,3.1c-1,0-1.7-0.3-2.2-0.9c-0.5-0.6-0.7-1.4-0.5-2.3
	c0.3-1.9,1.8-3.2,3.7-3.2c0.9,0,1.7,0.3,2.2,0.9C27.6,11.8,27.8,12.7,27.7,13.6z"/>
<path class="st0" d="M49.7,7.2h-3.3c-0.3,0-0.6,0.2-0.8,0.4l-4.5,6.7l-1.9-6.4c-0.1-0.4-0.5-0.7-0.9-0.7H35c-0.4,0-0.7,0.4-0.5,0.8
	l3.6,10.6l-3.4,4.8c-0.3,0.4,0,0.9,0.5,0.9h3.3c0.3,0,0.6-0.2,0.8-0.4L50.2,8.1C50.4,7.7,50.2,7.2,49.7,7.2z"/>
<path class="st1" d="M60.6,0.9h-6.8c-0.5,0-0.9,0.3-0.9,0.8L50,19.2c-0.1,0.3,0.2,0.7,0.6,0.7h3.5c0.3,0,0.6-0.2,0.7-0.6l0.8-5
	c0.1-0.5,0.5-0.8,0.9-0.8h2.2c4.5,0,7.1-2.2,7.8-6.5c0.3-1.9,0-3.4-0.9-4.4C64.6,1.5,62.9,0.9,60.6,0.9z M61.4,7.3
	c-0.4,2.5-2.2,2.5-4.1,2.5h-1L57,5.1c0-0.3,0.3-0.5,0.6-0.5H58c1.2,0,2.4,0,3,0.7C61.4,5.8,61.5,6.4,61.4,7.3z"/>
<path class="st1" d="M81,7.2h-3.3c-0.3,0-0.5,0.2-0.6,0.5l-0.1,0.9l-0.2-0.3c-0.7-1-2.3-1.4-3.9-1.4c-3.6,0-6.7,2.7-7.3,6.6
	c-0.3,1.9,0.1,3.8,1.2,5c1,1.2,2.4,1.7,4.1,1.7c2.9,0,4.5-1.9,4.5-1.9l-0.1,0.9c-0.1,0.3,0.2,0.7,0.6,0.7h2.9c0.5,0,0.9-0.3,0.9-0.8
	l1.8-11.2C81.6,7.5,81.4,7.2,81,7.2z M76.5,13.6c-0.3,1.9-1.8,3.1-3.7,3.1c-0.9,0-1.7-0.3-2.2-0.9c-0.5-0.6-0.7-1.4-0.5-2.3
	c0.3-1.9,1.8-3.2,3.7-3.2c0.9,0,1.7,0.3,2.2,0.9C76.4,11.8,76.6,12.7,76.5,13.6z"/>
<path class="st1" d="M84.9,1.4l-2.8,17.9c-0.1,0.3,0.2,0.7,0.6,0.7h2.8c0.5,0,0.9-0.3,0.9-0.8l2.8-17.5c0.1-0.3-0.2-0.7-0.6-0.7
	h-3.2C85.2,0.9,84.9,1.1,84.9,1.4z"/>
</svg>
