<svg id="Layer_1" data-name="Layer 1" xmlns="http://www.w3.org/2000/svg" viewBox="0 0 107.67 107.72"><defs><style>.cls-1{fill-rule:evenodd;}</style></defs><title>add-person</title><path class="cls-1" d="M193.94,185.89c-12.14-11.11-13.68-24.14-4.51-34.19,8-8.76,22.24-9.3,31-1.17,10.16,9.37,9.19,21.83-2.84,35.36,3.62,1.64,7.29,3.1,10.73,5,1.18.64,1.79,2.32,2.66,3.53-1.55-.05-3.37.41-4.6-.23-24.7-12.91-53.53-1.31-61.13,24.78-.92,3.17-1,6.56-1.81,9.78-.32,1.35-1.38,2.53-2.1,3.78-.6-1.36-1.82-2.77-1.72-4.08,1.45-18.51,10.57-31.83,27.41-39.76C189.13,187.68,191.3,186.94,193.94,185.89Zm11.44-1.21a18,18,0,1,0-17.84-18.29A17.9,17.9,0,0,0,205.38,184.68Z" transform="translate(-159.66 -144.77)"/><path class="cls-1" d="M243.52,228.68c0,7,.11,13.46-.09,19.9,0,1.32-1.25,2.6-1.92,3.9-.66-1.32-1.85-2.62-1.89-4-.2-6.44-.09-12.89-.09-19.85-6.72,0-13,.12-19.27-.09-1.52-.05-3-1.18-4.52-1.82,1.45-.7,2.87-1.94,4.34-2,6.28-.22,12.58-.1,19.45-.1,0-6.64-.12-12.91.08-19.17,0-1.56,1.12-3.08,1.73-4.62.73,1.57,2,3.12,2.09,4.72.25,6.13.1,12.27.1,19.07h15.56a15.09,15.09,0,0,1,4,.07,24.78,24.78,0,0,1,4.27,2.1c-1.36.61-2.71,1.7-4.09,1.75C256.93,228.79,250.61,228.68,243.52,228.68Z" transform="translate(-159.66 -144.77)"/></svg>