<?xml version="1.0" encoding="utf-8"?>
<!-- Generator: Adobe Illustrator 20.1.0, SVG Export Plug-In . SVG Version: 6.00 Build 0)  -->
<svg version="1.1" id="Layer_1" xmlns="http://www.w3.org/2000/svg" xmlns:xlink="http://www.w3.org/1999/xlink" x="0px" y="0px"
	 viewBox="0 0 100 100" style="enable-background:new 0 0 100 100;" xml:space="preserve">
<title>arrow-top</title>
<path d="M25.1,51l46,46c0.5,0.6,1.4,0.6,2,0c0,0,0,0,0,0l1.8-1.8c0.6-0.5,0.6-1.4,0-2c0,0,0,0,0,0L31.7,50L74.9,6.8
	c0.6-0.5,0.6-1.4,0-2c0,0,0,0,0,0L73.1,3c-0.5-0.6-1.4-0.6-2,0c0,0,0,0,0,0L25,49C24.5,49.5,24.5,50.4,25.1,51
	C25.1,51,25.1,51,25.1,51z"/>
</svg>
