<svg xmlns="http://www.w3.org/2000/svg" viewBox="0 0 84.41 90.63">
    <path fill="#000000" d="M461.08,692.21l.19-.8c.06-.25.1-.47.13-.66.09-.51.17-1,.68-1.11,7.58-1.69,9.35-6.67,9.75-14.14a192.22,192.22,0,0,1,4-32.17c2.77-12.35,9.93-20.42,21.28-24,.94-.3,1.71-1.92,2.53-3.65a31.63,31.63,0,0,1,1.56-3l.19-.31h5.16l-.21.82c-1.25,4.77,1.46,5.86,5.21,7.38l1.2.49c9.81,4.13,15.83,12.59,18.4,25.84a192.7,192.7,0,0,1,3,28.33c.33,7.13,1.34,13.12,10.47,14.13l.84.09-1.07,2.77Zm71.34-3.58q-.3-2.33-.6-4.6c-.52-3.94-1-7.66-1.42-11.46-.29-2.7-.52-5.46-.74-8.12-.31-3.69-.63-7.51-1.11-11.23-1.34-10.34-4.51-17.83-10-23.57a21.91,21.91,0,0,0-15.89-7.1,19.54,19.54,0,0,0-15.57,7.72,42.91,42.91,0,0,0-8.51,17.85c-1.79,9.58-2.77,19.52-3.72,29.13-.37,3.73-.75,7.58-1.18,11.39Z" transform="translate(-461.08 -612.37)"/>
    <path fill="#000000" d="M502.65,703c-3.24,0-7.34-.66-10.35-5.8l-.82-1.41,1.57.46c1.26.37,2.42.78,3.55,1.17a20.78,20.78,0,0,0,6.45,1.58h0a19,19,0,0,0,6.16-1.48c1-.37,2.12-.75,3.26-1.08l1.32-.38-.54,1.27c-2,4.56-5.61,5.4-8.92,5.62C503.76,703,503.2,703,502.65,703Z" transform="translate(-461.08 -612.37)"/>
</svg>