<?xml version="1.0" encoding="utf-8"?>
<!-- Generator: Adobe Illustrator 20.1.0, SVG Export Plug-In . SVG Version: 6.00 Build 0)  -->
<svg version="1.1" id="Layer_1" xmlns="http://www.w3.org/2000/svg" xmlns:xlink="http://www.w3.org/1999/xlink" x="0px" y="0px"
	 viewBox="0 0 151 151" style="enable-background:new 0 0 151 151;" xml:space="preserve">
<path d="M7.9,25.3c-1.8,1.2-4.4,3.8-5.6,5.6l-0.1,0.2C0.8,33.2,0,35.6,0,38.2v37.6c0,40.2,0.1,41.6,2.1,44.8
	c1.1,1.9,3.3,4.3,4.9,5.4c2.7,2,4.2,2,68.7,2c62.8,0,65.9-0.1,68.7-1.9c1.5-1,3.7-3.2,4.7-4.7c1.8-2.7,1.9-5.5,1.9-45.8V37
	c0-2.8-0.9-5.5-2.6-7.7v0c-5-6.6-1.7-6.3-72.7-6.3H15.2c-2.5,0-5,0.8-7.1,2.2L7.9,25.3z M141.4,32.9c2.2,2,2.6,3.3,2.6,7.8V46H75.5
	H7v-4.3c0.1-2.3,0.7-5.3,1.4-6.6c2.9-5.2,1.5-5.1,68.3-4.8l58.6,0.2C137.5,30.5,139.7,31.4,141.4,32.9L141.4,32.9z M144,90.1
	c0.5,26.7,0.6,27.5-1.8,29.4c-2.2,1.8-5.9,1.5-66.3,1.5H16.8c-2.4,0-4.7-0.9-6.5-2.4h0h0c-1.8-1.5-2.8-3.7-2.8-6.1L7.2,89.6L6.9,63
	h68.8h68.8L144,90.1z"/>
<path d="M23,76L23,76c0,2.2,1.8,4,4,4h22.5H72c2.2,0,4-1.8,4-4l0,0v0c0-2.2-1.8-4-4-4H49.5H27C24.8,72,23,73.8,23,76L23,76z"/>
</svg>
