<?xml version="1.0" encoding="UTF-8" standalone="no"?>
<!DOCTYPE svg PUBLIC "-//W3C//DTD SVG 1.1//EN" "http://www.w3.org/Graphics/SVG/1.1/DTD/svg11.dtd">
<svg version="1.1" xmlns="http://www.w3.org/2000/svg" xmlns:xlink="http://www.w3.org/1999/xlink" preserveAspectRatio="xMidYMid meet" viewBox="0 0 640 640" width="640" height="640"><defs><path d="M318.49 237.86C245.2 237.86 185.71 297.35 185.71 370.63C185.71 443.92 245.2 503.41 318.49 503.41C391.77 503.41 451.26 443.92 451.26 370.63C451.26 297.35 391.77 237.86 318.49 237.86Z" id="b1j4kUUK41"></path><path d="M13.61 541.1C13.61 452 13.61 205.07 13.61 115.98C13.61 104.73 22.73 95.61 33.98 95.61C151.86 95.61 485.12 95.61 603 95.61C614.25 95.61 623.37 104.73 623.37 115.98C623.37 205.07 623.37 452 623.37 541.1C623.37 552.34 614.25 561.46 603 561.46C485.12 561.46 151.86 561.46 33.98 561.46C22.73 561.46 13.61 552.34 13.61 541.1Z" id="a5u4rexgdK"></path><path d="M15.12 170L624.88 170" id="bMEJTAA55"></path><path d="M522.12 230.88C522.12 224.39 522.12 224.93 522.12 218.44C522.12 207.39 531.08 198.44 542.12 198.44C554.22 198.44 570.51 198.44 582.61 198.44C593.66 198.44 602.61 207.39 602.61 218.44C602.61 224.93 602.61 224.39 602.61 230.88C602.61 241.92 593.66 250.88 582.61 250.88C570.51 250.88 554.22 250.88 542.12 250.88C531.08 250.88 522.12 241.92 522.12 230.88Z" id="g4WAgk12L2"></path><path d="M522.12 297.22C522.12 290.73 522.12 291.27 522.12 284.78C522.12 273.73 531.08 264.78 542.12 264.78C554.22 264.78 570.51 264.78 582.61 264.78C593.66 264.78 602.61 273.73 602.61 284.78C602.61 291.27 602.61 290.73 602.61 297.22C602.61 308.27 593.66 317.22 582.61 317.22C570.51 317.22 554.22 317.22 542.12 317.22C531.08 317.22 522.12 308.27 522.12 297.22Z" id="b1e4wavr02"></path><path d="M522.12 436.73C522.12 430.24 522.12 430.78 522.12 424.29C522.12 413.25 531.08 404.29 542.12 404.29C554.22 404.29 570.51 404.29 582.61 404.29C593.66 404.29 602.61 413.25 602.61 424.29C602.61 430.78 602.61 430.24 602.61 436.73C602.61 447.78 593.66 456.73 582.61 456.73C570.51 456.73 554.22 456.73 542.12 456.73C531.08 456.73 522.12 447.78 522.12 436.73Z" id="a6fce2794"></path><path d="M522.12 365.39C522.12 358.9 522.12 359.44 522.12 352.95C522.12 341.91 531.08 332.95 542.12 332.95C554.22 332.95 570.51 332.95 582.61 332.95C593.66 332.95 602.61 341.91 602.61 352.95C602.61 359.44 602.61 358.9 602.61 365.39C602.61 376.44 593.66 385.39 582.61 385.39C570.51 385.39 554.22 385.39 542.12 385.39C531.08 385.39 522.12 376.44 522.12 365.39Z" id="aBNodIxf"></path><path d="M522.12 490.41C522.12 496.9 522.12 496.37 522.12 502.85C522.12 513.9 531.08 522.85 542.12 522.85C554.22 522.85 570.51 522.85 582.61 522.85C593.66 522.85 602.61 513.9 602.61 502.85C602.61 496.37 602.61 496.9 602.61 490.41C602.61 479.37 593.66 470.41 582.61 470.41C570.51 470.41 554.22 470.41 542.12 470.41C531.08 470.41 522.12 479.37 522.12 490.41Z" id="a8vLnUCXxt"></path><path d="M505.85 491.54C505.85 498.02 505.85 497.49 505.85 503.98C505.85 515.02 496.9 523.98 485.85 523.98C470.59 523.98 444.78 523.98 429.51 523.98C418.47 523.98 409.51 515.02 409.51 503.98C409.51 497.49 409.51 498.02 409.51 491.54C409.51 480.49 418.47 471.54 429.51 471.54C444.78 471.54 470.59 471.54 485.85 471.54C496.9 471.54 505.85 480.49 505.85 491.54Z" id="b5dJ0Y0ND6"></path><path d="M487.49 405.48L488.3 405.56L489.1 405.68L489.88 405.82L490.66 406L491.42 406.2L492.18 406.43L492.91 406.7L493.64 406.99L494.35 407.3L495.04 407.65L495.72 408.02L496.39 408.41L497.04 408.83L497.67 409.27L498.28 409.74L498.87 410.23L499.44 410.74L500 411.27L500.53 411.83L501.04 412.4L501.53 412.99L501.99 413.6L502.44 414.23L502.86 414.88L503.25 415.54L503.62 416.22L503.96 416.92L504.28 417.63L504.57 418.35L504.83 419.09L505.07 419.84L505.27 420.61L505.45 421.38L505.59 422.17L505.71 422.97L505.79 423.77L505.84 424.59L505.85 425.41L505.85 437.85L505.84 438.68L505.79 439.49L505.71 440.3L505.59 441.1L505.45 441.88L505.27 442.66L505.07 443.42L504.83 444.18L504.57 444.91L504.28 445.64L503.96 446.35L503.62 447.04L503.25 447.72L502.86 448.39L502.44 449.04L501.99 449.67L501.53 450.28L501.04 450.87L500.53 451.44L500 452L499.44 452.53L498.87 453.04L498.28 453.53L497.67 453.99L497.04 454.44L496.39 454.86L495.72 455.25L495.04 455.62L494.35 455.96L493.64 456.28L492.91 456.57L492.18 456.83L491.42 457.07L490.66 457.27L489.88 457.45L489.1 457.59L488.3 457.71L487.49 457.79L486.68 457.84L485.85 457.85L429.51 457.85L429.1 457.84L428.7 457.81L428.3 457.76L427.92 457.69L427.54 457.6L427.17 457.49L426.82 457.36L426.47 457.21L426.13 457.05L425.8 456.87L425.48 456.68L425.18 456.47L424.89 456.25L424.6 456.01L424.34 455.76L424.08 455.5L423.84 455.23L423.61 454.94L423.4 454.65L423.2 454.34L423.01 454.03L422.84 453.71L422.69 453.38L422.55 453.04L422.43 452.69L422.32 452.34L422.24 451.99L422.17 451.62L422.11 451.26L422.08 450.89L422.07 450.52L422.07 450.14L422.1 449.76L422.14 449.39L422.2 449.01L422.29 448.63L422.39 448.25L422.52 447.88L422.67 447.5L422.84 447.13L443.43 405.41L485.85 405.41L486.68 405.43L487.49 405.48Z" id="a3nDhmaMCO"></path><path d="M581.88 542.98L581.88 502.73" id="a1crPgBOut"></path><path d="M411.41 336.65C392.07 349.19 344.8 379.84 325.45 392.37C319.52 396.22 311.59 394.53 307.74 388.59C306.35 386.44 309.14 390.74 307.74 388.59C303.9 382.66 305.59 374.73 311.52 370.88C330.86 358.35 378.14 327.7 397.48 315.16C403.41 311.31 411.34 313 415.19 318.94C416.58 321.09 413.8 316.79 415.19 318.94C419.04 324.87 417.35 332.8 411.41 336.65Z" id="d2QFbbImnV"></path><path d="M15.12 170L624.88 170" id="b85fUXpU3"></path><path d="M123.24 66.22C123.24 81.49 123.24 109.73 123.24 125C123.24 134.7 115.38 142.56 105.68 142.56C102.17 142.56 109.2 142.56 105.68 142.56C95.98 142.56 88.12 134.7 88.12 125C88.12 109.73 88.12 81.49 88.12 66.22C88.12 56.52 95.98 48.66 105.68 48.66C109.2 48.66 102.17 48.66 105.68 48.66C115.38 48.66 123.24 56.52 123.24 66.22Z" id="b7xB8oRDGg"></path><path d="M550.24 66.22C550.24 81.49 550.24 109.73 550.24 125C550.24 134.7 542.38 142.56 532.68 142.56C529.17 142.56 536.2 142.56 532.68 142.56C522.98 142.56 515.12 134.7 515.12 125C515.12 109.73 515.12 81.49 515.12 66.22C515.12 56.52 522.98 48.66 532.68 48.66C536.2 48.66 529.17 48.66 532.68 48.66C542.38 48.66 550.24 56.52 550.24 66.22Z" id="f1HlnDpSL"></path><path d="M331.29 270.61C331.29 293.66 331.29 350 331.29 373.05C331.29 380.12 325.56 385.85 318.49 385.85C315.93 385.85 321.05 385.85 318.49 385.85C311.42 385.85 305.68 380.12 305.68 373.05C305.68 350 305.68 293.66 305.68 270.61C305.68 263.54 311.42 257.8 318.49 257.8C321.05 257.8 315.93 257.8 318.49 257.8C325.56 257.8 331.29 263.54 331.29 270.61Z" id="eC7G8fnWt"></path><path d="M59.76 542.98L59.76 502.73" id="bU0AiB9mU"></path><path d="M119.61 231.34C119.61 224.85 119.61 225.39 119.61 218.9C119.61 207.85 110.66 198.9 99.61 198.9C87.49 198.9 71.12 198.9 59 198.9C47.95 198.9 39 207.85 39 218.9C39 225.39 39 224.85 39 231.34C39 242.38 47.95 251.34 59 251.34C71.12 251.34 87.49 251.34 99.61 251.34C110.66 251.34 119.61 242.38 119.61 231.34Z" id="b8JtohQhZ"></path><path d="M119.61 490.41C119.61 496.9 119.61 496.37 119.61 502.85C119.61 513.9 110.66 522.85 99.61 522.85C87.49 522.85 71.12 522.85 59 522.85C47.95 522.85 39 513.9 39 502.85C39 496.37 39 496.9 39 490.41C39 479.37 47.95 470.41 59 470.41C71.12 470.41 87.49 470.41 99.61 470.41C110.66 470.41 119.61 479.37 119.61 490.41Z" id="aTHahU40R"></path><path d="M217.22 447.5L217.37 447.88L217.49 448.25L217.6 448.63L217.68 449.01L217.75 449.39L217.79 449.77L217.82 450.14L217.82 450.52L217.81 450.89L217.77 451.26L217.72 451.63L217.65 451.99L217.57 452.34L217.46 452.69L217.34 453.04L217.2 453.38L217.05 453.71L216.88 454.03L216.69 454.34L216.49 454.65L216.28 454.94L216.05 455.23L215.81 455.5L215.56 455.76L215.29 456.01L215.01 456.25L214.71 456.47L214.41 456.68L214.09 456.87L213.76 457.05L213.43 457.21L213.08 457.36L212.72 457.49L212.35 457.6L211.97 457.69L211.59 457.76L211.2 457.81L210.79 457.84L210.38 457.85L153.9 457.85L153.08 457.84L152.26 457.79L151.46 457.71L150.66 457.59L149.87 457.45L149.1 457.27L148.33 457.07L147.58 456.83L146.84 456.57L146.12 456.28L145.41 455.96L144.71 455.62L144.03 455.25L143.37 454.86L142.72 454.44L142.09 453.99L141.48 453.53L140.89 453.04L140.32 452.53L139.76 452L139.23 451.44L138.72 450.87L138.23 450.28L137.76 449.67L137.32 449.04L136.9 448.39L136.51 447.72L136.14 447.04L135.79 446.35L135.48 445.64L135.19 444.91L134.92 444.18L134.69 443.42L134.49 442.66L134.31 441.88L134.17 441.1L134.05 440.3L133.97 439.49L133.92 438.68L133.9 437.85L133.9 425.41L133.92 424.59L133.97 423.77L134.05 422.97L134.17 422.17L134.31 421.38L134.49 420.61L134.69 419.84L134.92 419.09L135.19 418.35L135.48 417.63L135.79 416.92L136.14 416.22L136.51 415.54L136.9 414.88L137.32 414.23L137.76 413.6L138.23 412.99L138.72 412.4L139.23 411.83L139.76 411.27L140.32 410.74L140.89 410.23L141.48 409.74L142.09 409.27L142.72 408.83L143.37 408.41L144.03 408.02L144.71 407.65L145.41 407.3L146.12 406.99L146.84 406.7L147.58 406.43L148.33 406.2L149.1 406L149.87 405.82L150.66 405.68L151.46 405.56L152.26 405.48L153.08 405.43L153.9 405.41L196.42 405.41L217.04 447.13L217.22 447.5Z" id="bLG9qSVo"></path><path d="M133.9 491.54C133.9 498.02 133.9 497.49 133.9 503.98C133.9 515.02 142.86 523.98 153.9 523.98C169.69 523.98 197.05 523.98 212.84 523.98C223.88 523.98 232.84 515.02 232.84 503.98C232.84 497.49 232.84 498.02 232.84 491.54C232.84 480.49 223.88 471.54 212.84 471.54C197.05 471.54 169.69 471.54 153.9 471.54C142.86 471.54 133.9 480.49 133.9 491.54Z" id="dY2UmTngg"></path><path d="M119.61 437.85C119.61 431.36 119.61 431.9 119.61 425.41C119.61 414.37 110.66 405.41 99.61 405.41C87.49 405.41 71.12 405.41 59 405.41C47.95 405.41 39 414.37 39 425.41C39 431.9 39 431.36 39 437.85C39 448.9 47.95 457.85 59 457.85C71.12 457.85 87.49 457.85 99.61 457.85C110.66 457.85 119.61 448.9 119.61 437.85Z" id="b2qn3n8vBn"></path><path d="M119.61 365.39C119.61 358.9 119.61 359.44 119.61 352.95C119.61 341.91 110.66 332.95 99.61 332.95C87.49 332.95 71.12 332.95 59 332.95C47.95 332.95 39 341.91 39 352.95C39 359.44 39 358.9 39 365.39C39 376.44 47.95 385.39 59 385.39C71.12 385.39 87.49 385.39 99.61 385.39C110.66 385.39 119.61 376.44 119.61 365.39Z" id="a2g7k2fisQ"></path><path d="M119.61 297.22C119.61 290.73 119.61 291.27 119.61 284.78C119.61 273.73 110.66 264.78 99.61 264.78C87.49 264.78 71.12 264.78 59 264.78C47.95 264.78 39 273.73 39 284.78C39 291.27 39 290.73 39 297.22C39 308.27 47.95 317.22 59 317.22C71.12 317.22 87.49 317.22 99.61 317.22C110.66 317.22 119.61 308.27 119.61 297.22Z" id="f12F3nOlpM"></path><path d="M190.1 365.39C190.1 358.9 186.37 359.44 186.37 352.95C186.37 341.91 201.15 332.95 190.1 332.95C177.98 332.95 166.02 332.95 153.9 332.95C142.85 332.95 133.9 341.91 133.9 352.95C133.9 359.44 133.9 358.9 133.9 365.39C133.9 376.44 142.85 385.39 153.9 385.39C166.02 385.39 174.25 385.39 186.37 385.39C197.42 385.39 190.1 376.44 190.1 365.39Z" id="a19AJy0Rr6"></path><path d="M211.85 297.22C211.85 290.73 211.85 291.27 211.85 284.78C211.85 273.74 202.9 264.78 191.85 264.78C179.73 264.78 163.36 264.78 151.24 264.78C140.19 264.78 131.24 273.74 131.24 284.78C131.24 291.27 131.24 290.73 131.24 297.22C131.24 308.27 140.19 317.22 151.24 317.22C163.36 317.22 179.73 317.22 191.85 317.22C202.9 317.22 211.85 308.27 211.85 297.22Z" id="b3LOdqrjnG"></path><path d="M211.85 230.88C211.85 224.39 211.85 224.93 211.85 218.44C211.85 207.4 202.9 198.44 191.85 198.44C179.73 198.44 163.36 198.44 151.24 198.44C140.19 198.44 131.24 207.4 131.24 218.44C131.24 224.93 131.24 224.39 131.24 230.88C131.24 241.93 140.19 250.88 151.24 250.88C163.36 250.88 179.73 250.88 191.85 250.88C202.9 250.88 211.85 241.93 211.85 230.88Z" id="g4nnNdHuiZ"></path><path d="M444.68 365.85C444.68 359.36 448.55 359.9 448.55 353.41C448.55 342.37 433.2 333.41 444.68 333.41C457.28 333.41 469.7 333.41 482.3 333.41C493.78 333.41 503.09 342.37 503.09 353.41C503.09 359.9 503.09 359.36 503.09 365.85C503.09 376.9 493.78 385.85 482.3 385.85C469.7 385.85 461.15 385.85 448.55 385.85C437.07 385.85 444.68 376.9 444.68 365.85Z" id="bc06yhGVK"></path><path d="M422.07 297.68C422.07 291.19 422.07 291.73 422.07 285.24C422.07 274.2 431.37 265.24 442.86 265.24C455.45 265.24 472.47 265.24 485.06 265.24C496.55 265.24 505.85 274.2 505.85 285.24C505.85 291.73 505.85 291.19 505.85 297.68C505.85 308.73 496.55 317.68 485.06 317.68C472.47 317.68 455.45 317.68 442.86 317.68C431.37 317.68 422.07 308.73 422.07 297.68Z" id="bZTCjfXJT"></path><path d="M422.07 231.34C422.07 224.85 422.07 225.39 422.07 218.9C422.07 207.86 431.37 198.9 442.86 198.9C455.45 198.9 472.47 198.9 485.06 198.9C496.55 198.9 505.85 207.86 505.85 218.9C505.85 225.39 505.85 224.85 505.85 231.34C505.85 242.39 496.55 251.34 485.06 251.34C472.47 251.34 455.45 251.34 442.86 251.34C431.37 251.34 422.07 242.39 422.07 231.34Z" id="h4zSyKldJs"></path></defs><g><g><g><use xlink:href="#b1j4kUUK41" opacity="1" fill="#000000" fill-opacity="0"></use><g><use xlink:href="#b1j4kUUK41" opacity="1" fill-opacity="0" stroke="#000000" stroke-width="18.67" stroke-opacity="1"></use></g></g><g><use xlink:href="#a5u4rexgdK" opacity="1" fill="#000000" fill-opacity="0"></use><g><use xlink:href="#a5u4rexgdK" opacity="1" fill-opacity="0" stroke="#000000" stroke-width="16" stroke-opacity="1"></use></g></g><g><use xlink:href="#bMEJTAA55" opacity="1" fill="#000000" fill-opacity="0"></use><g><use xlink:href="#bMEJTAA55" opacity="1" fill-opacity="0" stroke="#ffffff" stroke-width="20" stroke-opacity="1"></use></g></g><g><use xlink:href="#g4WAgk12L2" opacity="1" fill="#000000" fill-opacity="1"></use><g><use xlink:href="#g4WAgk12L2" opacity="1" fill-opacity="0" stroke="#000000" stroke-width="1" stroke-opacity="0"></use></g></g><g><use xlink:href="#b1e4wavr02" opacity="1" fill="#000000" fill-opacity="1"></use><g><use xlink:href="#b1e4wavr02" opacity="1" fill-opacity="0" stroke="#000000" stroke-width="1" stroke-opacity="0"></use></g></g><g><use xlink:href="#a6fce2794" opacity="1" fill="#000000" fill-opacity="1"></use><g><use xlink:href="#a6fce2794" opacity="1" fill-opacity="0" stroke="#000000" stroke-width="1" stroke-opacity="0"></use></g></g><g><use xlink:href="#aBNodIxf" opacity="1" fill="#000000" fill-opacity="1"></use><g><use xlink:href="#aBNodIxf" opacity="1" fill-opacity="0" stroke="#000000" stroke-width="1" stroke-opacity="0"></use></g></g><g><use xlink:href="#a8vLnUCXxt" opacity="1" fill="#000000" fill-opacity="1"></use><g><use xlink:href="#a8vLnUCXxt" opacity="1" fill-opacity="0" stroke="#000000" stroke-width="1" stroke-opacity="0"></use></g></g><g><use xlink:href="#b5dJ0Y0ND6" opacity="1" fill="#000000" fill-opacity="1"></use><g><use xlink:href="#b5dJ0Y0ND6" opacity="1" fill-opacity="0" stroke="#000000" stroke-width="1" stroke-opacity="0"></use></g></g><g><use xlink:href="#a3nDhmaMCO" opacity="1" fill="#000000" fill-opacity="1"></use><g><use xlink:href="#a3nDhmaMCO" opacity="1" fill-opacity="0" stroke="#000000" stroke-width="1" stroke-opacity="0"></use></g></g><g><use xlink:href="#a1crPgBOut" opacity="1" fill="#000000" fill-opacity="0"></use><g><use xlink:href="#a1crPgBOut" opacity="1" fill-opacity="0" stroke="#061d1d" stroke-width="0" stroke-opacity="1"></use></g></g><g><use xlink:href="#d2QFbbImnV" opacity="1" fill="#000000" fill-opacity="1"></use><g><use xlink:href="#d2QFbbImnV" opacity="1" fill-opacity="0" stroke="#000000" stroke-width="1" stroke-opacity="0"></use></g></g><g><use xlink:href="#b85fUXpU3" opacity="1" fill="#000000" fill-opacity="0"></use><g><use xlink:href="#b85fUXpU3" opacity="1" fill-opacity="0" stroke="#000000" stroke-width="20" stroke-opacity="1"></use></g></g><g><use xlink:href="#b7xB8oRDGg" opacity="1" fill="#000000" fill-opacity="1"></use><g><use xlink:href="#b7xB8oRDGg" opacity="1" fill-opacity="0" stroke="#000000" stroke-width="1" stroke-opacity="0"></use></g></g><g><use xlink:href="#f1HlnDpSL" opacity="1" fill="#000000" fill-opacity="1"></use><g><use xlink:href="#f1HlnDpSL" opacity="1" fill-opacity="0" stroke="#000000" stroke-width="1" stroke-opacity="0"></use></g></g><g><use xlink:href="#eC7G8fnWt" opacity="1" fill="#000000" fill-opacity="1"></use><g><use xlink:href="#eC7G8fnWt" opacity="1" fill-opacity="0" stroke="#000000" stroke-width="1" stroke-opacity="0"></use></g></g><g><use xlink:href="#bU0AiB9mU" opacity="1" fill="#000000" fill-opacity="0"></use><g><use xlink:href="#bU0AiB9mU" opacity="1" fill-opacity="0" stroke="#061d1d" stroke-width="0" stroke-opacity="1"></use></g></g><g><use xlink:href="#b8JtohQhZ" opacity="1" fill="#000000" fill-opacity="1"></use><g><use xlink:href="#b8JtohQhZ" opacity="1" fill-opacity="0" stroke="#000000" stroke-width="1" stroke-opacity="0"></use></g></g><g><use xlink:href="#aTHahU40R" opacity="1" fill="#000000" fill-opacity="1"></use><g><use xlink:href="#aTHahU40R" opacity="1" fill-opacity="0" stroke="#000000" stroke-width="1" stroke-opacity="0"></use></g></g><g><use xlink:href="#bLG9qSVo" opacity="1" fill="#000000" fill-opacity="1"></use><g><use xlink:href="#bLG9qSVo" opacity="1" fill-opacity="0" stroke="#000000" stroke-width="1" stroke-opacity="0"></use></g></g><g><use xlink:href="#dY2UmTngg" opacity="1" fill="#000000" fill-opacity="1"></use><g><use xlink:href="#dY2UmTngg" opacity="1" fill-opacity="0" stroke="#000000" stroke-width="1" stroke-opacity="0"></use></g></g><g><use xlink:href="#b2qn3n8vBn" opacity="1" fill="#000000" fill-opacity="1"></use><g><use xlink:href="#b2qn3n8vBn" opacity="1" fill-opacity="0" stroke="#000000" stroke-width="1" stroke-opacity="0"></use></g></g><g><use xlink:href="#a2g7k2fisQ" opacity="1" fill="#000000" fill-opacity="1"></use><g><use xlink:href="#a2g7k2fisQ" opacity="1" fill-opacity="0" stroke="#000000" stroke-width="1" stroke-opacity="0"></use></g></g><g><use xlink:href="#f12F3nOlpM" opacity="1" fill="#000000" fill-opacity="1"></use><g><use xlink:href="#f12F3nOlpM" opacity="1" fill-opacity="0" stroke="#000000" stroke-width="1" stroke-opacity="0"></use></g></g><g><use xlink:href="#a19AJy0Rr6" opacity="1" fill="#000000" fill-opacity="1"></use><g><use xlink:href="#a19AJy0Rr6" opacity="1" fill-opacity="0" stroke="#000000" stroke-width="1" stroke-opacity="0"></use></g></g><g><use xlink:href="#b3LOdqrjnG" opacity="1" fill="#000000" fill-opacity="1"></use><g><use xlink:href="#b3LOdqrjnG" opacity="1" fill-opacity="0" stroke="#000000" stroke-width="1" stroke-opacity="0"></use></g></g><g><use xlink:href="#g4nnNdHuiZ" opacity="1" fill="#000000" fill-opacity="1"></use><g><use xlink:href="#g4nnNdHuiZ" opacity="1" fill-opacity="0" stroke="#000000" stroke-width="1" stroke-opacity="0"></use></g></g><g><use xlink:href="#bc06yhGVK" opacity="1" fill="#000000" fill-opacity="1"></use><g><use xlink:href="#bc06yhGVK" opacity="1" fill-opacity="0" stroke="#000000" stroke-width="1" stroke-opacity="0"></use></g></g><g><use xlink:href="#bZTCjfXJT" opacity="1" fill="#000000" fill-opacity="1"></use><g><use xlink:href="#bZTCjfXJT" opacity="1" fill-opacity="0" stroke="#000000" stroke-width="1" stroke-opacity="0"></use></g></g><g><use xlink:href="#h4zSyKldJs" opacity="1" fill="#000000" fill-opacity="1"></use><g><use xlink:href="#h4zSyKldJs" opacity="1" fill-opacity="0" stroke="#000000" stroke-width="1" stroke-opacity="0"></use></g></g></g></g></svg>