<?xml version="1.0" encoding="utf-8"?>
<!-- Generator: Adobe Illustrator 20.1.0, SVG Export Plug-In . SVG Version: 6.00 Build 0)  -->
<svg version="1.1" id="Layer_1" xmlns="http://www.w3.org/2000/svg" xmlns:xlink="http://www.w3.org/1999/xlink" x="0px" y="0px"
	 viewBox="0 0 99 103" style="enable-background:new 0 0 99 103;" xml:space="preserve">
<title>edit</title>
<path d="M5.8,6.2c-0.1,1.9-0.3,3.2-0.3,4.5c0,32.4,0,49.3,0,81.8c0,3,0.2,4.9,4.1,4.9c29.5-0.2,50.5-0.1,79.9-0.1
	c1.2-0.1,2.3-0.2,3.5-0.4V55c-0.1-1-0.1-2,0.1-3c0.7-2,1.7-3.8,2.6-5.7c1,1.8,2.6,3.6,2.7,5.4c0.3,8.3,0.1,16.7,0.1,25
	c0,12-0.1,8.4,0.1,20.4c0.1,4.1-1.3,5.6-5.5,5.5c-32-0.1-55.5-0.1-87.4,0c-4.2,0-5.5-1.5-5.5-5.6c0.1-35.5,0.1-55.4,0-90.8
	c0-4.2,1.5-5.5,5.6-5.4c26.5,0.1,44.5,0,70.9,0.2c1.9,0,3.8,1.6,5.6,2.5c-1.9,0.9-3.7,2.6-5.5,2.6C52.2,6.3,36,6.2,11.4,6.2L5.8,6.2
	z"/>
<path d="M120.8-2.1c-1.7,2.8-2.6,5-4.1,6.6c-16.3,16.5-32.4,33.1-49.3,49c-4.5,4.3-11.1,6.6-17,9.3c-2.6,1.2-4.6-0.9-3.2-3.5
	c3.5-6.6,6.5-13.8,11.4-19.1C73.5,24.5,89.2,9.5,104.5-5.9c3.1-3.1,6.5-5.3,10.6-2.7C117.3-7.2,118.8-4.4,120.8-2.1z M100.1,5.5
	c-13.6,13.8-26.8,27.1-40,40.6c-1.7,1.8-2.6,4.4-3.8,6.6l1.5,1.2c17.1-12.8,30.3-29.8,46.3-44.1L100.1,5.5z M103.9,1.7l4.5,5.2
	c1.7-2,3.2-4.1,4.6-6.3c0.6-1.1,0.4-2.6,0.6-3.9c-1.5,0.1-3.1-0.2-4.3,0.4C107.5-1.8,106-0.1,103.9,1.7L103.9,1.7z"/>
</svg>
