<svg xmlns="http://www.w3.org/2000/svg" viewBox="0 0 93.17 93.02">
    <path d="M660.8,688.19c-6.18-.07-7.71-1.55-7.82-7.55v-.44c0-2.48-.17-3.9-2.55-4.13a9.17,9.17,0,0,1-3.63-1.49,7.29,7.29,0,0,0-3.46-1.35,4.34,4.34,0,0,0-3.07,1.63,9.22,9.22,0,0,1-5.66,2.34,2.84,2.84,0,0,1-1.47-.34,27.1,27.1,0,0,1-5.88-5.3c-.7-.77-1.36-1.49-2-2.17l-.3-.3.16-.4c.29-.74.51-1.36.7-1.9a11.81,11.81,0,0,1,1-2.41,14.11,14.11,0,0,1,1.55-1.88c.74-.8,1.65-1.79,1.56-2.32a24.65,24.65,0,0,0-3.59-8.9c-.35-.56-2-.95-4-.95h-.78c-5.86,0-6.63-4-6.64-7.51,0-7.25,1-9.73,6.94-10.18l.74,0h1.5c1.72,0,2.66-.37,3-2.37a12.73,12.73,0,0,1,1.31-3.35c1.31-2.6,2.34-4.65-.92-7.45a5.31,5.31,0,0,1-2.13-3.81c-.09-2.45,2-4.69,4.09-6.77,1.79-1.76,3.72-3.48,6-3.48a6,6,0,0,1,4.25,2.11l.12.12c1.23,1.24,2.29,2.3,3.57,2.3a3.87,3.87,0,0,0,2.21-.87,12.61,12.61,0,0,1,3.21-1.47c2.69-.94,4.81-1.69,4.21-5.67a5.72,5.72,0,0,1,1-4.71c1.08-1.28,3-2,5.57-2,1.17,0,2.19,0,3.09,0,6.49,0,6.89,1.43,7.92,9a3.52,3.52,0,0,0,1.14,2.28l.92.51c2,1.12,4.09,2.27,6.11,2.37h0a6.86,6.86,0,0,0,3.31-1.4,15,15,0,0,1,2.45-1.33,11.61,11.61,0,0,1,4-1,4,4,0,0,1,1.09.14,9.55,9.55,0,0,1,6.67,6.08,9.8,9.8,0,0,1-1.73,9.11,5.34,5.34,0,0,0-.52,4.11c1.39,4.61,2.83,8.13,7.57,8.13a11.45,11.45,0,0,0,1.59-.12h.22c1.49,0,3.92,2.17,4.2,3.75.72,4,.67,7.19-.15,9.64-.69,2-4.41,3.25-6.28,3.61-.54.1-1.08.15-1.6.21-2.17.21-3.32.42-3.58,2.5a10,10,0,0,1-1.46,3.54c-1.37,2.4-2.45,4.3.74,6.78a5.81,5.81,0,0,1,2.57,4.16c.11,1.85-.93,3.84-3.18,6.08-2.63,2.62-4.7,4.25-6.84,4.25-1.42,0-2.8-.71-4.48-2.31-1.35-1.29-2.35-2-3.46-2a3.83,3.83,0,0,0-2.14.81,11.67,11.67,0,0,1-3.1,1.34c-2.54.82-4.55,1.46-4.27,5.35.19,2.7-.2,4.42-1.26,5.55-1.47,1.57-4.11,1.89-7.63,1.89Zm-17.93-19.46a5,5,0,0,1,3,1.21,9.19,9.19,0,0,0,3.79,1.69c5.73,1,8,4.09,7.06,9.56a3,3,0,0,0,.37,2.43c.51.6,1.49.88,3.08.88.34,0,.69,0,1,0l.68,0h1.76a3.62,3.62,0,0,0,2.62-.67,2.77,2.77,0,0,0,.37-2.19c-.76-5.88,1.62-9,7.71-10.17a5.55,5.55,0,0,0,2.4-1.12,5.71,5.71,0,0,1,3.62-1.55c1.56,0,3,.9,4.43,2.75,1,1.36,2,2,3,2s2-.66,3.31-2c1.46-1.57,2.58-2.86,2.47-4.09a4,4,0,0,0-1.91-2.55,6.23,6.23,0,0,1-2.83-4,5.91,5.91,0,0,1,1.53-4.44,8.56,8.56,0,0,0,1.65-3.78c.64-4.27,2.79-6.34,6.58-6.34a13,13,0,0,1,2.07.18,6.43,6.43,0,0,0,1,.09,2.57,2.57,0,0,0,2-.69,4.7,4.7,0,0,0,.82-3.47c0-.41,0-.85,0-1.29,0-2.81-.14-4.53-2.56-4.53a6.39,6.39,0,0,0-.68,0,14.91,14.91,0,0,1-1.66.1c-5.83,0-7.36-4.14-8-7.75a5.75,5.75,0,0,0-1.13-2.4,5.54,5.54,0,0,1-1.52-4.19,5.84,5.84,0,0,1,2.72-3.8c1.28-.93,1.95-1.82,2-2.72.09-1.06-.58-2.29-2.19-4s-2.65-2.25-3.7-2.25-2.13.74-3.35,2.31a12.62,12.62,0,0,1-2.07,2c-.33.27-.67.55-1,.85l-.33.29-.39-.19c-.8-.39-1.58-.83-2.33-1.26a17.65,17.65,0,0,0-4.76-2.13c-5.43-1.18-7.47-4-6.81-9.28a3.2,3.2,0,0,0-.47-2.56c-.8-.91-2.54-.93-4.22-1l-1.29,0c-1.83,0-3,.34-3.6,1.05a3.48,3.48,0,0,0-.44,2.88c.43,2.51.13,4.43-.91,5.87s-2.81,2.33-5.37,2.7a6.09,6.09,0,0,0-2.89,1.14,7.17,7.17,0,0,1-4.47,1.92c-1.86,0-3.54-1.07-5.15-3.26-.8-1.09-1.56-1.61-2.33-1.61s-1.86.66-3.11,2.09c-.33.37-.69.73-1,1.09-1,1-1.9,1.9-1.89,2.9a3.66,3.66,0,0,0,1.43,2.39c2.72,2.56,3.7,4.08,3.38,5.26a38.35,38.35,0,0,1-5.16,12c-.9,1.3-3.28,1.33-5.57,1.35-.66,0-1.31,0-1.89.06-3.08.21-3,1.88-3,4.2,0,.5,0,1,0,1.48-.06,1.24,0,3,.74,3.79a2,2,0,0,0,1.52.54,4.85,4.85,0,0,0,.78-.07,13.55,13.55,0,0,1,2.17-.19c5.58,0,7,4.34,7.65,7.61a7,7,0,0,0,1.32,2.87,4.77,4.77,0,0,1-1,7.66c-1.41,1.05-2.13,2-2.21,3s.63,2.41,2.26,4.09c1.34,1.37,2.49,2,3.52,2s2.26-.79,3.59-2.49S641.54,668.73,642.86,668.73Z" transform="translate(-614.95 -595.18)"/>
    <path d="M661.67,660.43a18.88,18.88,0,1,1,19-18.87,18.75,18.75,0,0,1-19,18.87Zm-.19-34.18a15.32,15.32,0,0,0,.1,30.64,15.53,15.53,0,0,0,15.35-15.12,15.47,15.47,0,0,0-15.39-15.52v-.65Z" transform="translate(-614.95 -595.18)"/>
</svg>