<svg id="Layer_1" data-name="Layer 1" xmlns="http://www.w3.org/2000/svg" viewBox="0 0 79.83 100.04"><defs><style>.cls-1{fill-rule:evenodd;}</style></defs><title>hash</title><path class="cls-1" d="M455.94,635.82a2.58,2.58,0,0,1-2.47,2.18H388a1.86,1.86,0,0,1-1.88-2.18h0a2.58,2.58,0,0,1,2.47-2.18h65.49a1.86,1.86,0,0,1,1.88,2.18Z" transform="translate(-376.12 -608.38)"/><path class="cls-1" d="M446,679.95a2.58,2.58,0,0,1-2.47,2.18H378a1.86,1.86,0,0,1-1.88-2.18h0a2.57,2.57,0,0,1,2.47-2.18h65.49a1.86,1.86,0,0,1,1.88,2.18Z" transform="translate(-376.12 -608.38)"/><path class="cls-1" d="M412.18,608.39a1.87,1.87,0,0,1,1.54,2.44l-25.84,95.68a2.55,2.55,0,0,1-2.7,1.88h0a1.87,1.87,0,0,1-1.54-2.44l25.84-95.68a2.55,2.55,0,0,1,2.7-1.87Z" transform="translate(-376.12 -608.38)"/><path class="cls-1" d="M444.89,608.39a1.87,1.87,0,0,1,1.54,2.44L420.6,706.52a2.55,2.55,0,0,1-2.7,1.88h0a1.87,1.87,0,0,1-1.54-2.44l25.84-95.68a2.55,2.55,0,0,1,2.7-1.87Z" transform="translate(-376.12 -608.38)"/></svg>