<?xml version="1.0" encoding="utf-8"?>
<!-- Generator: Adobe Illustrator 20.1.0, SVG Export Plug-In . SVG Version: 6.00 Build 0)  -->
<svg version="1.1" id="Layer_1" xmlns="http://www.w3.org/2000/svg" xmlns:xlink="http://www.w3.org/1999/xlink" x="0px" y="0px"
	 viewBox="0 0 90 90" style="enable-background:new 0 0 90 90;" xml:space="preserve">
<title>info</title>
<g id="yyqXGt.tif">
	<path d="M46-15.4c0.3,0.1,0.6,0.1,0.8,0.2c3.9,0.2,7.9,0.8,11.7,1.8c3.3,0.9,6.6,2.2,9.7,3.8c3.5,1.7,6.9,3.9,9.8,6.6
		c2.1,1.7,4.1,3.6,5.9,5.6c2.2,2.6,4.2,5.4,6.1,8.3c2.1,3.3,3.7,6.8,4.8,10.6c0.8,2.9,1.5,5.9,2,8.8c0.3,1.8,0.3,3.6,0.5,5.5
		c0.1,2.8,0,5.5-0.5,8.3c-0.4,3.3-1.1,6.5-2.2,9.5c-1.9,5.4-4.6,10.4-8,14.9c-2.1,2.8-4.4,5.3-7.1,7.6c-2.6,2.3-5.4,4.3-8.3,6.1
		c-2.8,1.6-5.8,3.1-8.8,4.2c-3.4,1.3-6.9,2.2-10.5,2.6c-1.8,0.2-3.6,0.4-5.4,0.5c-3.4,0.1-6.9-0.1-10.2-0.8
		c-5.1-0.8-10.1-2.5-14.7-4.9c-3.5-1.7-6.7-3.9-9.6-6.4C10,75.5,8,73.6,6.1,71.6c-2.2-2.6-4.3-5.4-6.1-8.4c-1.6-2.8-3.1-5.8-4.3-8.8
		c-1.3-3.4-2.2-6.9-2.6-10.5c-0.2-1.8-0.3-3.7-0.5-5.5c0-0.1-0.1-0.2-0.2-0.3v-2c0.1-0.1,0.1-0.3,0.1-0.5c0.2-1.8,0.3-3.7,0.5-5.5
		c0.4-3,1-6,2-8.9C-3.6,17.6-2,14.1,0,10.8c1.9-2.9,3.9-5.7,6.1-8.3c1.8-2,3.8-3.9,5.9-5.7c2.9-2.5,6.1-4.7,9.5-6.4
		c3.1-1.6,6.5-3,9.9-3.9c3.8-1,7.8-1.7,11.7-1.9c0.3,0,0.6-0.1,0.8-0.2L46-15.4z M-2.3,36.9c0.2,2,0.4,3.8,0.6,5.6
		c0.2,2,0.5,4,0.8,5.9c0.6,3.3,1.7,6.6,3.2,9.6c2.1,4.6,5,8.8,8.6,12.4c2.2,2.2,4.6,4.2,7.1,6c2.5,1.7,5.1,3.1,7.9,4.3
		c2.2,0.9,4.4,1.6,6.7,2.2c1.9,0.4,3.8,0.8,5.8,1c2.1,0.4,4.2,0.6,6.3,0.6c2.4,0,4.9-0.4,7.3-0.6c3-0.3,6-0.9,8.9-1.8
		c4.4-1.5,8.5-3.6,12.2-6.3c1.7-1.2,3.4-2.6,4.9-4c1.3-1.2,2.6-2.6,3.7-4c1.5-2,2.9-4,4.2-6.1c1.6-2.6,2.9-5.3,3.8-8.2
		c0.7-2.3,1.3-4.7,1.6-7.2c0.5-3,0.9-6,1-9.1c0-2.3-0.3-4.7-0.6-7c-0.3-3-0.9-5.9-1.9-8.7c-0.6-1.9-1.4-3.8-2.3-5.6
		c-1.4-2.7-3-5.3-4.7-7.8c-1.1-1.6-2.4-3-3.8-4.3c-2.2-2.2-4.6-4.2-7.1-6c-2.5-1.6-5.1-3-7.8-4.1C62.2-7.2,60-8,57.7-8.5
		c-2-0.4-3.9-0.8-5.9-1c-1.9-0.4-3.8-0.6-5.7-0.6c-2.6,0-5.2,0.4-7.8,0.6c-3,0.3-6,0.9-8.9,1.8C25-6.2,20.9-4.1,17.1-1.4
		c-1.7,1.3-3.4,2.6-4.9,4.1c-1.3,1.2-2.6,2.6-3.7,4c-1.5,2-2.9,4-4.2,6.1c-1.6,2.6-2.9,5.3-3.9,8.2c-0.7,2.3-1.2,4.7-1.6,7.2
		C-1.7,31.1-2,34.1-2.3,36.9z"/>
	<path d="M35.3,29.8c-0.1-1.3,0.3-2,1.4-2.2c2.5-0.4,5.1-0.8,7.6-1.2c1.8-0.3,3.6-0.7,5.5-0.9c1.8-0.3,3.5-0.4,5.5-0.6
		c-0.4,1.5-0.8,2.9-1.2,4.2c-1.4,4.7-2.7,9.4-4.1,14.1c-1.8,6.3-3.6,12.6-5.4,18.9c-0.1,0.5-0.2,0.9-0.3,1.4c-0.1,0.7,0.3,1.4,1,1.7
		c0.7,0.3,1.3-0.2,1.8-0.6c2-1.7,3.7-3.8,5-6c0.5-0.7,0.8-0.3,1.2-0.1s1,0.5,0.6,1.2c-1.2,1.8-2.3,3.6-3.6,5.3
		c-1.7,2.4-4,4.4-6.7,5.7c-2.5,1.3-5.5,1.5-8.1,0.6c-2.2-0.9-3.7-2.9-3.9-5.2c0.1-2.1,0.4-4.1,1.1-6.1c1.4-4.6,2.7-9.2,4-13.8
		c0.8-2.8,1.7-5.6,2.5-8.5c0.4-1.5,0.8-3,1-4.6c0.1-1.7-1.1-3.1-2.7-3.2c-0.1,0-0.1,0-0.2,0C36.7,29.8,36,29.8,35.3,29.8z"/>
	<path d="M45,9.8c0-4,3.3-7.1,7.2-7.1c4,0,7.1,3.3,7.1,7.2l0,0c0,4-3.3,7.1-7.2,7.1C48.2,17,45,13.8,45,9.8z"/>
</g>
</svg>
