<?xml version="1.0" encoding="utf-8"?>
<!-- Generator: Adobe Illustrator 20.1.0, SVG Export Plug-In . SVG Version: 6.00 Build 0)  -->
<svg version="1.1" id="Layer_1" xmlns="http://www.w3.org/2000/svg" xmlns:xlink="http://www.w3.org/1999/xlink" x="0px" y="0px"
	 viewBox="0 0 98 98" style="enable-background:new 0 0 98 98;" xml:space="preserve">
<path d="M79.2,97.5h-0.8c-8.1-0.1-15-5.8-16.7-13.7c-0.5-1.7-0.5-3.5-0.1-5.3c1.4-4.3-0.5-6-4.9-7.9c-7.5-3.2-14.8-6.9-20.2-9.8
	c-0.7-0.4-1.5-0.7-2.3-0.7c-0.9,0-1.7,0.5-2.9,1.7c-3.3,3.7-8.1,5.9-13.1,5.9c-2.5,0-5-0.5-7.2-1.5C3.7,63.1,0,56.5,0.5,47.7
	c0.3-7.5,5.2-14,12.3-16.4c2-0.6,4.2-1,6.3-1c4.7,0,9.1,2,12.1,5.7c1.1,1.3,2,1.8,3,1.8c0.9-0.1,1.8-0.3,2.5-0.8
	c6.2-3.2,12.5-6.2,18.5-9.1l6.2-3c0.1-1.4,0.1-2.8,0.1-4.1c-0.1-2.8,0.2-5.6,0.8-8.3c2.1-7.7,8.5-12.1,17.4-12.1h0.9
	C88.3,0.8,94.9,6,96.9,13.5c2.2,8.1-1.2,16.7-8,20.7c-2.8,1.7-6,2.5-9.3,2.5c-4.6,0.1-9-1.7-12.2-5c-1.5-1.6-2.7-2.2-4-2.2
	c-1.1,0.1-2.3,0.4-3.2,1c-6.2,3.3-12.6,6.3-18.8,9.2L39,40.8c-2.6,1.2-3.8,2.3-2.9,4.8c0.3,0.9,0.4,1.9,0.1,2.9
	c-2.2,6.7,1.7,8.9,7.4,11.2c6,2.5,11.8,5.5,16.7,8.1c1,0.6,2.1,0.9,3.2,1c1.2,0,2.3-0.7,3.6-2.1c3.2-3.5,7.7-5.4,12.4-5.3
	c3.4,0,6.6,0.9,9.5,2.6c7,4.2,10.2,13.2,7.7,21.3C94.3,92.9,87.7,97.5,79.2,97.5z M79.5,65.5c-7.2,0-13.6,6.7-13.8,14.3
	c0,3.5,1.4,7,3.9,9.5c2.6,2.6,6.1,4.1,9.8,4.1C87,93.3,93,87.3,93.3,79.8C93.3,72.1,87.3,65.8,79.5,65.5l0-0.6L79.5,65.5z
	 M18.3,34.5c-7,0-13.6,6.9-13.9,14.5c-0.1,3.7,1.3,7.2,3.9,9.8c2.5,2.7,6,4.4,9.8,4.5h0.2c7.1,0,13.8-7,14-14.7
	c0.2-6.7-6.8-14-13.6-14.2L18.3,34.5z M79.4,4.5c-7.2,0-13.9,6.4-14,13.4s6.7,14.2,13.8,14.5h0.4c7.2,0,13.6-6.5,13.7-13.8
	C93.2,10.9,87.1,4.7,79.4,4.5l0-0.7L79.4,4.5z"/>
</svg>
