<?xml version="1.0" encoding="utf-8"?>
<!-- Generator: Adobe Illustrator 20.1.0, SVG Export Plug-In . SVG Version: 6.00 Build 0)  -->
<svg version="1.1" id="Layer_1" xmlns="http://www.w3.org/2000/svg" xmlns:xlink="http://www.w3.org/1999/xlink" x="0px" y="0px"
	 viewBox="0 0 106.7 106.7" style="enable-background:new 0 0 106.7 106.7;" xml:space="preserve">
<g transform="translate(-500.000000,-1000.000000)">
	<path d="M547.6,1102.6c-5.2-0.5-11.2-2-15.9-3.8c-23.5-9.3-38.5-32.1-37.6-57.1c0.2-4.8,0.6-8.1,1.8-12.7c1.1-4.5,2.2-7.3,4.4-11.8
		c5.3-10.8,13.6-19.5,24.2-25.5c13.6-7.7,30.9-9.6,46.1-5c15.3,4.6,28.1,15.2,35.5,29.5c3.4,6.5,5.6,13.8,6.4,21.1
		c0.3,2.9,0.3,9.7,0,12.6c-2.5,23.2-18.3,42.7-40.5,50c-3.6,1.2-6.6,1.9-10.3,2.5C558.8,1102.7,550.4,1102.9,547.6,1102.6z
		 M561.1,1095.3c11.3-1.7,21.5-6.9,29.5-15c19.8-20,20.2-52.1,0.9-72.8c-6.6-7.1-16.1-12.6-25.6-14.9c-4.4-1.1-7.4-1.4-12.6-1.4
		c-5.5,0-8.3,0.3-13.2,1.6c-11.5,3-21.6,9.8-28.8,19.4c-10,13.5-13,31.2-7.9,47.2c6.2,19.1,22.7,33.1,42.5,35.8
		c1.4,0.2,3,0.4,3.6,0.5C551.6,1096,558.7,1095.7,561.1,1095.3z"/>
</g>
</svg>
