<svg id="Layer_1" data-name="Layer 1" xmlns="http://www.w3.org/2000/svg" viewBox="0 0 489.1 487.68"><defs><style>.cls-1{fill:#fff;opacity:0.2;}.cls-1,.cls-2{fill-rule:evenodd;}.cls-2,.cls-3{fill:#ffbb61;}</style></defs><title>ico_insure_inv</title><path class="cls-1" d="M442.89,307c10-152.3-62.49-267.47-209.19-267.83C104.41,40.77,27.69,162,34.5,307Z" transform="translate(-11.62 -11.47)"/><path class="cls-2" d="M270.09,318.44c0,61.84,1.22,62.36.44,121.82-.55,41.84-47.3,73-82.09,52.38-13.28-7.86-24.47-21-33.06-35.31-5.66-8.13,10.6-27.83,19.42-12.61,10.11,17.43,24.55,32.78,43.59,29.5,19.42-3.35,29-16.18,29-41.32.13-56.6,0-54.26,0-114.46H223c-62.67,0-125.36-.74-188,.43-20.06.37-24.16-7.23-23.19-25.31,0-171.37,96.6-250.16,217.48-267.68,2.58-.37,7.24-.59,15.74-.65,2.92,0-.27-13.77,11.9-13.77,15.61,0,9.63,13.84,13.07,13.91a130.32,130.32,0,0,1,14.83.88c120.81,10.45,215.93,89,215.93,261.19,0,30.13,1.75,31-27.64,31C405.12,318.46,341.69,318.44,270.09,318.44Zm207.83-21.1C488.75,152.23,410.19,42.48,251.15,42.14,111,43.64,27.81,159.16,35.2,297.34Z" transform="translate(-11.62 -11.47)"/><path class="cls-3" d="M84.78,233.77l27.46-.16s.69-44.51,28.84-85.48l-12.44-3.7S94.82,159.16,84.78,233.77Z" transform="translate(-11.62 -11.47)"/></svg>