<svg id="Layer_1" data-name="Layer 1" xmlns="http://www.w3.org/2000/svg" viewBox="0 0 501.43 450.63"><defs><style>.cls-1{fill:#70ff48;opacity:0.3;}.cls-2{fill:#fff;fill-rule:evenodd;}</style></defs><title>ico_ tag2</title><circle class="cls-1" cx="339.29" cy="140.31" r="130.62"/><circle class="cls-1" cx="157.72" cy="140.95" r="131.26"/><circle class="cls-1" cx="245.81" cy="291.59" r="131.26"/><path class="cls-2" d="M507.07,181.6C506.8,99.14,439.81,31.52,357.68,30.82A150.45,150.45,0,0,0,255.93,68.75,150.68,150.68,0,1,0,103.77,323q-.18,3.76-.19,7.57c0,82.72,66.55,150.16,148.92,150.85,83.66.71,152.84-67.65,152.57-150.75,0-2.21-.07-4.4-.17-6.59C464.21,303.6,507.28,247.2,507.07,181.6ZM291.14,184.5a148.89,148.89,0,0,0-35.45-4.59,153.56,153.56,0,0,0-34.12,3.51c0-.34,0-.67,0-1-.28-33.9,13.21-65.65,35.06-89.85,21.77,24.11,35,55.83,34.58,90.1C291.18,183.28,291.15,183.89,291.14,184.5Zm-35,86.39A134.37,134.37,0,0,1,222.9,200.2a126.46,126.46,0,0,1,31.61-3.81,134.09,134.09,0,0,1,35.11,4.94A134.93,134.93,0,0,1,256.17,270.89Zm48.89-64.21c43.55,18.06,76,58.1,82.78,105.36a130.8,130.8,0,0,1-33.53,3.83A134.3,134.3,0,0,1,268,282.51,149.82,149.82,0,0,0,305.06,206.68Zm-60.77,75.87c-24.27,21.12-55.91,33.85-89.93,33.32a133,133,0,0,1-33.31-4.77c7.45-47.83,41.83-88.75,86.36-106A150.62,150.62,0,0,0,244.29,282.54ZM21.61,182.41C21,109.66,83.82,46.78,156.57,47.3a135.7,135.7,0,0,1,87.61,33.13,150.27,150.27,0,0,0-38.6,101.07c0,2.12.05,4.22.14,6.31a149.84,149.84,0,0,0-100.12,118C56.85,285.7,22.06,237.74,21.61,182.41ZM389.13,331.76C388.28,405.3,325.84,466.1,252.31,465c-72.64-1.12-132.17-61-132.76-133.45q0-1.8,0-3.6a149.55,149.55,0,0,0,35,4.44A151.1,151.1,0,0,0,256,294.24a149.81,149.81,0,0,0,133.07,34.37C389.13,329.66,389.14,330.71,389.13,331.76Zm14-24.53a152.17,152.17,0,0,0-96.22-117.77q.19-3.91.18-7.87A151,151,0,0,0,268.3,81c24-21,55.05-34,88.21-33.73,74.21.54,135.46,62.13,134.62,135.36C490.47,239.11,453.54,288,403.16,307.23Z" transform="translate(-5.63 -30.81)"/></svg>