<svg id="Layer_1" data-name="Layer 1" xmlns="http://www.w3.org/2000/svg" viewBox="0 0 122.05 94.77"><title>logout</title><path d="M397.81,615.73v21.43a.5.5,0,0,1-.5.5h-71a.5.5,0,0,1-.5-.5V553.39a.5.5,0,0,1,.5-.5h71a.5.5,0,0,1,.5.5v23h5v-23a5.51,5.51,0,0,0-5.5-5.5h-71a5.51,5.51,0,0,0-5.5,5.5v83.77a5.51,5.51,0,0,0,5.5,5.5h71a5.51,5.51,0,0,0,5.5-5.5V615.73Z" transform="translate(-320.79 -547.89)"/><rect x="36.05" y="45.39" width="80.14" height="4"/><polygon points="102.22 65.97 99.48 63.05 116.12 47.42 99.52 32.61 102.19 29.63 122.05 47.35 102.22 65.97"/></svg>